<svg xmlns="http://www.w3.org/2000/svg" width="162" height="43" viewBox="0 0 162 43" fill="none"><path d="M61.85 6.8418C55.5089 5.20846 48.89 9.59515 47.27 16.4551C45.65 23.3151 49.6769 30.4551 56.2032 32.1351C62.9146 33.8618 68.654 30.1285 70.7832 23.9218C70.7369 23.9218 70.6906 23.9218 70.598 23.9218C68.5615 23.9218 66.5249 23.9218 64.5346 23.9218C64.3957 23.9218 64.2569 24.0151 64.2106 24.1551C63.6552 25.0418 62.9146 25.6951 61.9889 26.0685C60.8317 26.5818 59.6283 26.6751 58.3786 26.5351C56.2957 26.2551 54.722 25.2751 53.7037 23.3151C53.4723 22.8485 53.2872 22.3351 53.102 21.7285C59.258 21.7285 65.3214 21.7285 71.3849 21.7285C72.218 15.0085 68.8392 8.61513 61.85 6.8418ZM53.2872 16.5018C54.0277 14.4485 56.0643 12.3951 59.1655 12.4418C62.3129 12.4885 64.3032 14.5885 64.8586 16.5018C60.9706 16.5018 57.1289 16.5018 53.2872 16.5018Z" fill="#0B0AA3"></path><path d="M96.1014 15.8007C95.3608 11.6473 91.7042 8.42732 87.5385 8.38066C84.9002 8.33399 82.6322 9.22066 80.7345 11.0407C80.6882 11.0873 80.5957 11.134 80.4568 11.274C80.4568 10.5273 80.4568 9.87401 80.4568 9.22068C78.3277 9.22068 76.1985 9.22068 74.1157 9.22068C74.1157 16.9673 74.1157 24.714 74.1157 32.414C76.2448 32.414 78.3277 32.414 80.4568 32.414C80.4568 32.274 80.4568 32.134 80.4568 31.994C80.4568 27.6073 80.4568 23.174 80.4568 18.7873C80.4568 18.6007 80.4568 18.4607 80.4568 18.274C80.5957 15.4273 83.5117 13.234 86.2888 13.9807C88.4642 14.5407 89.8991 16.454 89.9454 18.7407C89.9454 23.174 89.9454 27.6073 89.9454 32.0407C89.9454 32.1807 89.9454 32.3207 89.9454 32.5073C92.0745 32.5073 94.1574 32.5073 96.2865 32.5073C96.2865 32.3673 96.2865 32.274 96.2865 32.1807C96.2865 27.3273 96.2865 22.5207 96.2865 17.6673C96.2402 17.014 96.1939 16.4073 96.1014 15.8007Z" fill="#0B0AA3"></path><path d="M0.429138 32.5082C2.65085 32.5082 4.82629 32.5082 7.00172 32.5082C7.00172 21.7282 7.00172 10.9482 7.00172 0.214844C4.82629 0.214844 2.65085 0.214844 0.429138 0.214844C0.429138 10.9948 0.429138 21.7282 0.429138 32.5082Z" fill="#0B0AA3"></path><path d="M98.8325 32.4629C101.008 32.4629 103.183 32.4629 105.405 32.4629C105.405 24.9962 105.405 17.5763 105.405 10.1562C103.183 10.1562 101.008 10.1562 98.8325 10.1562C98.8325 17.5763 98.8325 24.9962 98.8325 32.4629Z" fill="#0B0AA3"></path><path d="M9.59418 32.4627C11.7696 32.4627 13.945 32.4627 16.1667 32.4627C16.1667 24.9961 16.1667 17.576 16.1667 10.1094C13.9913 10.1094 11.8159 10.1094 9.59418 10.1094C9.59418 17.576 9.59418 24.9961 9.59418 32.4627Z" fill="#0B0AA3"></path><path d="M44.4005 19.536C44.4005 12.396 38.6611 6.60938 31.5794 6.60938C24.4977 6.60938 18.7582 12.396 18.7582 19.536C18.7582 25.2294 22.4148 30.0827 27.5062 31.8094C23.7108 33.256 21.0262 36.896 21.0262 41.236V42.1227H27.0434V41.236C27.0434 39.0427 28.8022 37.2227 31.024 37.2227C33.1994 37.2227 35.0045 38.996 35.0045 41.236V42.1227H41.0217V41.236C41.0217 37.1294 38.5685 33.5827 35.0508 32.0427C40.42 30.5027 44.4005 25.5094 44.4005 19.536ZM31.5794 26.3961C27.8302 26.3961 24.7754 23.316 24.7754 19.536C24.7754 15.756 27.8302 12.676 31.5794 12.676C35.3285 12.676 38.3834 15.756 38.3834 19.536C38.3834 23.316 35.3285 26.3961 31.5794 26.3961Z" fill="#0B0AA3"></path><path d="M42.8732 10.2008C45.1738 10.2008 47.0389 8.32038 47.0389 6.00078C47.0389 3.68119 45.1738 1.80078 42.8732 1.80078C40.5725 1.80078 38.7075 3.68119 38.7075 6.00078C38.7075 8.32038 40.5725 10.2008 42.8732 10.2008Z" fill="#02D2FE"></path><path d="M120.819 6.5625C113.737 6.5625 107.997 12.3492 107.997 19.4892C107.997 26.6292 113.737 32.4158 120.819 32.4158C127.9 32.4158 133.64 26.6292 133.64 19.4892C133.686 12.3492 127.947 6.5625 120.819 6.5625ZM120.819 26.3491C117.07 26.3491 114.015 23.2692 114.015 19.4892C114.015 15.7092 117.07 12.6292 120.819 12.6292C124.568 12.6292 127.623 15.7092 127.623 19.4892C127.669 23.2692 124.614 26.3491 120.819 26.3491Z" fill="#0B0AA3"></path><path d="M126.79 31.6219C124.614 32.4153 123.503 34.7953 124.29 36.9886C125.077 39.1819 127.438 40.3019 129.613 39.5086C131.788 38.7153 132.899 36.3353 132.112 34.1419C131.326 31.9486 128.919 30.8286 126.79 31.6219Z" fill="#0B0AA3"></path><path d="M102.119 8.56797C104.42 8.56797 106.285 6.68756 106.285 4.36797C106.285 2.04837 104.42 0.167969 102.119 0.167969C99.8186 0.167969 97.9536 2.04837 97.9536 4.36797C97.9536 6.68756 99.8186 8.56797 102.119 8.56797Z" fill="#0B0AA3"></path><path d="M9.91771 1.42797C8.29771 3.0613 8.29771 5.72129 9.91771 7.35463C11.5377 8.98796 14.176 8.98796 15.796 7.35463C17.416 5.72129 17.416 3.0613 15.796 1.42797C14.176 -0.252031 11.5377 -0.252031 9.91771 1.42797Z" fill="#0B0AA3"></path><path d="M149.006 6.5625C141.924 6.5625 136.185 12.3492 136.185 19.4892C136.185 26.6292 141.924 32.4158 149.006 32.4158C156.088 32.4158 161.827 26.6292 161.827 19.4892C161.827 12.3492 156.088 6.5625 149.006 6.5625ZM149.006 26.3491C145.257 26.3491 142.202 23.2692 142.202 19.4892C142.202 15.7092 145.257 12.6292 149.006 12.6292C152.755 12.6292 155.81 15.7092 155.81 19.4892C155.81 23.2692 152.755 26.3491 149.006 26.3491Z" fill="#0B0AA3"></path></svg>