<svg xmlns="http://www.w3.org/2000/svg" width="45" height="40" viewBox="0 0 45 40" fill="none"><g clip-path="url(#clip0_2349_30887)"><mask id="mask0_2349_30887" style="mask-type:alpha" maskUnits="userSpaceOnUse" x="-39" y="0" width="80" height="80"><path d="M40.3839 39.9168C40.3839 61.7807 22.6597 79.5049 0.795743 79.5049C-21.0682 79.5049 -38.7924 61.7807 -38.7924 39.9168C-38.7924 18.0528 -21.0682 0.328614 0.795746 0.328614C22.6597 0.328615 40.3839 18.0528 40.3839 39.9168ZM-15.6689 39.9168C-15.6689 49.0099 -8.29742 56.3814 0.795744 56.3814C9.8889 56.3814 17.2604 49.0099 17.2604 39.9168C17.2604 30.8236 9.8889 23.4522 0.795745 23.4522C-8.29742 23.4522 -15.6689 30.8236 -15.6689 39.9168Z" fill="#D9D9D9"></path></mask><g mask="url(#mask0_2349_30887)"><path d="M21.1164 -5.4716L16.2469 -10.3525L6.50777 -0.590655L11.3773 4.29029L21.1164 -5.4716Z" fill="white"></path><path d="M11.3773 1.43098C13.2167 1.43098 14.946 0.712955 16.2468 -0.590887C17.5476 -1.89473 18.2639 -3.62807 18.2639 -5.47171C18.2639 -7.31535 17.5476 -9.0487 16.2468 -10.3525L6.50788 -0.590888C7.80868 0.712955 9.53798 1.43098 11.3773 1.43098Z" fill="#0B0AA3"></path><path d="M40.595 -5.4716L35.7255 -10.3525L25.9863 -0.590655L30.8559 4.29029L40.595 -5.4716Z" fill="white"></path><path d="M30.8557 1.43147C32.6951 1.43147 34.4244 0.713444 35.7252 -0.590399C37.026 -1.89424 37.7423 -3.62758 37.7423 -5.47123C37.7423 -7.31487 37.026 -9.04821 35.7252 -10.3521L25.9863 -0.5904C27.2871 0.713443 29.0164 1.43147 30.8557 1.43147Z" fill="#0B0AA3"></path><path d="M1.63764 33.5762L1.63764 43.3386L6.50708 38.4577L1.63764 33.5762Z" fill="#0B0AA3"></path><path d="M6.50709 38.458L1.63764 43.3388L11.3773 43.3388L6.50709 38.458Z" fill="white"></path><path d="M6.50708 38.458L1.63764 43.3388L8.52423 43.3388C8.52423 41.4952 7.80788 39.7619 6.50708 38.458Z" fill="#0B0AA3"></path><path d="M1.63764 36.436L1.63764 43.3387L6.50708 38.4579C5.20628 37.1541 3.47698 36.436 1.63764 36.436Z" fill="white"></path><path d="M5.28717 39.6807L1.63764 43.3387L6.79785 43.3387C6.79785 41.9757 6.27243 40.6682 5.28717 39.6807Z" fill="white"></path><path d="M1.63764 38.1655L1.63764 43.3378L5.28717 39.6797C4.30191 38.6922 2.99747 38.1655 1.63764 38.1655Z" fill="#0B0AA3"></path><path d="M1.63764 39.896L1.63764 43.3386L4.06726 40.9033C3.39755 40.232 2.51723 39.896 1.63764 39.896Z" fill="white"></path><path d="M11.3772 43.3386L21.116 43.3386L25.9855 38.4577L21.116 33.5762L11.3772 43.3386Z" fill="#0B0AA3"></path><path d="M25.9854 38.458L21.116 43.3388L30.8556 43.3388L25.9854 38.458Z" fill="white"></path><path d="M25.9854 38.458L21.116 43.3388L28.0026 43.3388C28.0026 41.4952 27.2862 39.7619 25.9854 38.458Z" fill="#0B0AA3"></path><path d="M16.2465 38.4579C14.9457 39.7617 14.2294 41.4951 14.2294 43.3387L21.116 43.3387L25.9854 38.4579C24.6846 37.1541 22.9553 36.436 21.116 36.436C19.2766 36.436 17.5473 37.1541 16.2465 38.4579Z" fill="white"></path><path d="M24.7655 39.6807L21.116 43.3387L26.2762 43.3387C26.2762 41.9757 25.7508 40.6682 24.7655 39.6807Z" fill="white"></path><path d="M17.4664 39.6807C16.4812 40.6683 15.9558 41.9758 15.9558 43.3388L21.1167 43.3388L24.7662 39.6807C23.781 38.6932 22.4765 38.1665 21.1167 38.1665C19.7569 38.1665 18.4524 38.6932 17.4672 39.6807L17.4664 39.6807Z" fill="#0B0AA3"></path><path d="M18.6864 40.9034C18.0167 41.5747 17.6815 42.4571 17.6815 43.3387L21.116 43.3387L23.5457 40.9034C22.2062 39.5608 20.0258 39.5608 18.6864 40.9034Z" fill="white"></path><path d="M30.8557 43.3386L40.5945 43.3386L45.464 38.4577L40.5945 33.5762L30.8557 43.3386Z" fill="#0B0AA3"></path><path d="M35.7251 38.4579C34.4243 39.7617 33.708 41.4951 33.708 43.3387L40.5945 43.3387L45.464 38.4579C44.1632 37.1541 42.4339 36.436 40.5945 36.436C38.7552 36.436 37.0259 37.1541 35.7251 38.4579Z" fill="white"></path><path d="M36.945 39.6807C35.9598 40.6683 35.4343 41.9758 35.4343 43.3388L40.5945 43.3388L44.2441 39.6807C43.2588 38.6932 41.9544 38.1665 40.5945 38.1665C39.2347 38.1665 37.9303 38.6932 36.945 39.6807Z" fill="#0B0AA3"></path><path d="M38.1649 40.9034C37.4952 41.5747 37.16 42.4571 37.16 43.3387L40.5945 43.3387L43.0242 40.9034C41.6847 39.5608 39.5044 39.5608 38.1649 40.9034Z" fill="white"></path><path d="M1.63764 4.2907L6.50708 -0.590124L1.63764 -5.47168L1.63764 -5.47095L1.63764 4.2907Z" fill="#0B0AA3"></path><path d="M1.63764 4.29001L1.63764 14.0517L11.3773 4.29001L6.50709 -0.590821L1.63764 4.29001Z" fill="white"></path><path d="M1.63764 4.29001L1.63764 11.1927C3.47698 11.1927 5.20628 10.4747 6.50708 9.17083C7.80788 7.86699 8.52423 6.13365 8.52423 4.29001C8.52423 2.44637 7.80788 0.713022 6.50708 -0.59082L1.63764 4.29001Z" fill="#0B0AA3"></path><path d="M1.63764 4.29039L6.50708 -0.590436C5.20628 -1.89428 3.47698 -2.6123 1.63764 -2.61231L1.63764 4.29039Z" fill="white"></path><path d="M1.6377 4.2899L1.6377 9.46217C2.99753 9.46217 4.30198 8.93552 5.28724 7.94796C6.27249 6.9604 6.79791 5.65291 6.79791 4.2899C6.79791 2.92689 6.27249 1.6194 5.28724 0.631836L1.6377 4.2899Z" fill="white"></path><path d="M1.63764 4.28995L5.28717 0.631887C4.30191 -0.355673 2.99747 -0.882324 1.63764 -0.882324L1.63764 4.28995Z" fill="#0B0AA3"></path><path d="M1.63765 4.29028L1.63765 7.73286C2.51724 7.73286 3.39756 7.39686 4.06727 6.72558C5.40669 5.38303 5.40669 3.19754 4.06727 1.85498L1.63765 4.29028Z" fill="#0B0AA3"></path><path d="M1.63764 4.29073L4.06726 1.85543C3.39755 1.18415 2.51723 0.848144 1.63764 0.848144L1.63764 4.29073Z" fill="white"></path><path d="M25.9855 -0.590248L21.116 -5.47119L11.3769 4.29069L16.2464 9.17164L25.9855 -0.590248Z" fill="#0B0AA3"></path><path d="M30.8548 4.29012L25.9852 -0.59082L16.2461 9.17106L21.1157 14.052L30.8548 4.29012Z" fill="white"></path><path d="M21.1161 11.1932C22.9555 11.1932 24.6848 10.4752 25.9856 9.17132C27.2864 7.86748 28.0027 6.13413 28.0027 4.29049C28.0027 2.44685 27.2864 0.71351 25.9856 -0.590332L16.2467 9.17132C17.5475 10.4752 19.2768 11.1932 21.1161 11.1932Z" fill="#0B0AA3"></path><path d="M16.2465 -0.589948C14.9457 0.713895 14.2294 2.44724 14.2294 4.29088C14.2294 6.13452 14.9457 7.86786 16.2465 9.1717L25.9854 -0.589947C24.6846 -1.89379 22.9553 -2.61182 21.116 -2.61182C19.2766 -2.61182 17.5473 -1.89379 16.2465 -0.589948Z" fill="white"></path><path d="M21.116 9.46315C22.4759 9.46315 23.7803 8.9365 24.7656 7.94894C25.7508 6.96138 26.2762 5.65388 26.2762 4.29088C26.2762 2.92787 25.7508 1.62037 24.7656 0.632812L17.4665 7.94894C18.4518 8.9365 19.7562 9.46315 21.116 9.46315Z" fill="white"></path><path d="M17.4665 0.632863C16.4812 1.62042 15.9558 2.92792 15.9558 4.29093C15.9558 5.65393 16.4812 6.96143 17.4665 7.94899L24.7656 0.632863C23.7803 -0.354697 22.4759 -0.881348 21.116 -0.881348C19.7562 -0.881348 18.4518 -0.354697 17.4665 0.632863Z" fill="#0B0AA3"></path><path d="M23.5457 6.72607C24.8851 5.38351 24.8851 3.19802 23.5457 1.85547L18.6864 6.72607C20.0258 8.06862 22.2062 8.06862 23.5457 6.72607Z" fill="#0B0AA3"></path><path d="M18.6864 1.85604C17.347 3.19859 17.347 5.38408 18.6864 6.72664L23.5457 1.85604C22.2062 0.513482 20.0258 0.513482 18.6864 1.85604Z" fill="white"></path><path d="M45.4643 -0.590248L40.5948 -5.47119L30.8557 4.29069L35.7252 9.17164L45.4643 -0.590248Z" fill="#0B0AA3"></path><path d="M50.3337 4.29061L45.4641 -0.590332L35.725 9.17155L40.5946 14.0525L50.3337 4.29061Z" fill="white"></path><path d="M40.5947 11.1932C42.434 11.1932 44.1633 10.4752 45.4641 9.17132C46.7649 7.86748 47.4813 6.13413 47.4813 4.29049C47.4813 2.44685 46.7649 0.71351 45.4641 -0.590332L35.7252 9.17132C37.026 10.4752 38.7553 11.1932 40.5947 11.1932Z" fill="#0B0AA3"></path><path d="M35.7252 -0.589948C34.4244 0.713895 33.7081 2.44724 33.7081 4.29088C33.7081 6.13452 34.4244 7.86786 35.7252 9.1717L45.4641 -0.589947C44.1633 -1.89379 42.434 -2.61182 40.5947 -2.61182C38.7553 -2.61182 37.026 -1.89379 35.7252 -0.589948Z" fill="white"></path><path d="M40.5946 9.46315C41.9544 9.46315 43.2589 8.9365 44.2441 7.94894C45.2294 6.96138 45.7548 5.65388 45.7548 4.29088C45.7548 2.92787 45.2294 1.62037 44.2441 0.632812L36.9451 7.94894C37.9303 8.9365 39.2348 9.46315 40.5946 9.46315Z" fill="white"></path><path d="M36.9451 0.632863C35.9598 1.62042 35.4344 2.92792 35.4344 4.29093C35.4344 5.65393 35.9598 6.96143 36.9451 7.94899L44.2441 0.632863C43.2589 -0.354697 41.9544 -0.881348 40.5946 -0.881348C39.2348 -0.881348 37.9303 -0.354697 36.9451 0.632863Z" fill="#0B0AA3"></path><path d="M43.0242 6.72607C44.3637 5.38351 44.3637 3.19802 43.0242 1.85547L38.165 6.72607C39.5044 8.06862 41.6848 8.06862 43.0242 6.72607Z" fill="#0B0AA3"></path><path d="M38.1651 1.85604C36.8256 3.19859 36.8256 5.38408 38.1651 6.72664L43.0243 1.85604C41.6849 0.513482 39.5045 0.513482 38.1651 1.85604Z" fill="white"></path><path d="M1.63751 23.8146L6.50696 18.9338L1.63752 14.0522L1.63751 23.8146Z" fill="#0B0AA3"></path><path d="M1.63752 23.8149L1.63752 33.5766L11.3771 23.8149L6.50697 18.9341L1.63752 23.8149Z" fill="white"></path><path d="M1.63751 23.8149L1.63751 30.7176C3.47685 30.7176 5.20615 29.9996 6.50696 28.6957C7.80776 27.3919 8.52411 25.6585 8.52411 23.8149C8.52411 21.9713 7.80776 20.2379 6.50696 18.9341L1.63751 23.8149Z" fill="#0B0AA3"></path><path d="M1.63752 23.8148L6.50696 18.934C5.20616 17.6301 3.47686 16.9121 1.63752 16.9121L1.63752 23.8148Z" fill="white"></path><path d="M1.63752 23.8148L1.63752 28.9871C2.99735 28.9871 4.3018 28.4604 5.28705 27.4729C6.27231 26.4853 6.79773 25.1778 6.79773 23.8148C6.79773 22.4518 6.27231 21.1443 5.28705 20.1567L1.63752 23.8148Z" fill="white"></path><path d="M1.63752 23.8149L5.28705 20.1568C4.30179 19.1692 2.99735 18.6426 1.63752 18.6426L1.63752 23.8149Z" fill="#0B0AA3"></path><path d="M1.63747 23.8152L1.63747 27.2578C2.51706 27.2578 3.39737 26.9218 4.06709 26.2505C5.40651 24.9079 5.40651 22.7224 4.06709 21.3799L1.63747 23.8152Z" fill="#0B0AA3"></path><path d="M1.63752 23.8147L4.06714 21.3794C3.39743 20.7081 2.51711 20.3721 1.63752 20.3721L1.63752 23.8147Z" fill="white"></path><path d="M45.4644 18.9337L40.5948 14.0527L30.8557 23.8146L35.7253 28.6956L45.4644 18.9337Z" fill="#0B0AA3"></path><path d="M50.3337 23.8145L45.4642 18.9336L35.7251 28.6955L40.5946 33.5764L50.3337 23.8145Z" fill="white"></path><path d="M40.5945 30.7171C42.4339 30.7171 44.1632 29.9991 45.464 28.6952C46.7648 27.3914 47.4811 25.6581 47.4811 23.8144C47.4811 21.9708 46.7648 20.2374 45.464 18.9336L35.7251 28.6952C37.0259 29.9991 38.7552 30.7171 40.5945 30.7171Z" fill="#0B0AA3"></path><path d="M35.7252 18.9335C34.4244 20.2373 33.708 21.9707 33.708 23.8143C33.708 25.658 34.4244 27.3913 35.7252 28.6951L45.4641 18.9335C44.1632 17.6296 42.4339 16.9116 40.5946 16.9116C38.7553 16.9116 37.026 17.6296 35.7252 18.9335Z" fill="white"></path><path d="M40.5946 28.9866C41.9544 28.9866 43.2589 28.4599 44.2441 27.4724C45.2294 26.4848 45.7548 25.1773 45.7548 23.8143C45.7548 22.4513 45.2294 21.1438 44.2441 20.1562L36.9451 27.4724C37.9303 28.4599 39.2348 28.9866 40.5946 28.9866Z" fill="white"></path><path d="M36.945 20.1563C35.9598 21.1439 35.4343 22.4514 35.4343 23.8144C35.4343 25.1774 35.9598 26.4849 36.945 27.4724L44.2441 20.1563C43.2588 19.1687 41.9544 18.6421 40.5945 18.6421C39.2347 18.6421 37.9303 19.1687 36.945 20.1563Z" fill="#0B0AA3"></path><path d="M43.0242 26.25C44.3637 24.9074 44.3637 22.722 43.0242 21.3794L38.165 26.25C39.5044 27.5925 41.6848 27.5926 43.0242 26.25Z" fill="#0B0AA3"></path><path d="M38.165 21.379C36.8256 22.7215 36.8256 24.907 38.165 26.2496L43.0242 21.379C41.6848 20.0364 39.5044 20.0364 38.165 21.379Z" fill="white"></path><path d="M16.2469 9.17098L11.3773 4.29004L1.6382 14.0519L6.50776 18.9329L16.2469 9.17098Z" fill="#0B0AA3"></path><path d="M21.1166 14.0533L16.2471 9.17236L6.50795 18.9342L11.3775 23.8152L21.1166 14.0533Z" fill="white"></path><path d="M11.3773 20.9559C13.2167 20.9559 14.946 20.2379 16.2468 18.934C17.5476 17.6302 18.2639 15.8968 18.2639 14.0532C18.2639 12.2095 17.5476 10.4762 16.2468 9.17236L6.50788 18.934C7.80868 20.2379 9.53798 20.9559 11.3773 20.9559Z" fill="#0B0AA3"></path><path d="M6.50739 9.17177C5.20659 10.4756 4.49024 12.209 4.49024 14.0526C4.49024 15.8962 5.20659 17.6296 6.50739 18.9334L16.2463 9.17177C14.9455 7.86793 13.2162 7.1499 11.3768 7.1499C9.53749 7.1499 7.80819 7.86793 6.50739 9.17177Z" fill="white"></path><path d="M11.3773 19.2258C12.7372 19.2258 14.0416 18.6992 15.0269 17.7116C16.0121 16.7241 16.5375 15.4166 16.5375 14.0536C16.5375 12.6906 16.0121 11.3831 15.0269 10.3955L7.7278 17.7116C8.71305 18.6992 10.0175 19.2258 11.3773 19.2258Z" fill="white"></path><path d="M7.72712 10.3946C6.74187 11.3821 6.21645 12.6896 6.21645 14.0526C6.21645 15.4157 6.74187 16.7231 7.72712 17.7107L15.0262 10.3946C14.0409 9.40702 12.7365 8.88037 11.3767 8.88037C10.0168 8.88037 8.71238 9.40702 7.72712 10.3946Z" fill="#0B0AA3"></path><path d="M13.807 16.4883C15.1464 15.1457 15.1464 12.9602 13.807 11.6177L8.94772 16.4883C10.2871 17.8308 12.4675 17.8308 13.807 16.4883Z" fill="#0B0AA3"></path><path d="M8.94777 11.6173C7.60834 12.9598 7.60834 15.1453 8.94777 16.4879L13.807 11.6173C12.4676 10.2747 10.2872 10.2747 8.94777 11.6173Z" fill="white"></path><path d="M35.7247 9.17147L30.8552 4.29053L21.116 14.0524L25.9856 18.9334L35.7247 9.17147Z" fill="#0B0AA3"></path><path d="M40.5952 14.0528L35.7256 9.17188L25.9865 18.9338L30.8561 23.8147L40.5952 14.0528Z" fill="white"></path><path d="M30.8558 20.9559C32.6951 20.9559 34.4244 20.2379 35.7252 18.934C37.026 17.6302 37.7424 15.8968 37.7424 14.0532C37.7424 12.2095 37.026 10.4762 35.7252 9.17236L25.9863 18.934C27.2871 20.2379 29.0164 20.9559 30.8558 20.9559Z" fill="#0B0AA3"></path><path d="M25.9856 9.17128C24.6848 10.4751 23.9685 12.2085 23.9685 14.0521C23.9684 15.8957 24.6848 17.6291 25.9856 18.9329L35.7245 9.17128C34.4237 7.86744 32.6944 7.14941 30.855 7.14941C29.0157 7.14941 27.2864 7.86744 25.9856 9.17128Z" fill="white"></path><path d="M30.8557 19.2254C32.2155 19.2254 33.52 18.6987 34.5053 17.7111C35.4905 16.7236 36.0159 15.4161 36.0159 14.0531C36.0159 12.6901 35.4905 11.3826 34.5053 10.395L27.2062 17.7111C28.1914 18.6987 29.4959 19.2254 30.8557 19.2254Z" fill="white"></path><path d="M27.2055 10.3941C26.2202 11.3817 25.6948 12.6891 25.6948 14.0522C25.6948 15.4152 26.2202 16.7227 27.2055 17.7102L34.5045 10.3941C33.5193 9.40653 32.2148 8.87988 30.855 8.87988C29.4952 8.87988 28.1907 9.40653 27.2055 10.3941Z" fill="#0B0AA3"></path><path d="M33.2854 16.4873C34.6248 15.1447 34.6248 12.9593 33.2854 11.6167L28.4262 16.4873C29.7656 17.8299 31.946 17.8299 33.2854 16.4873Z" fill="#0B0AA3"></path><path d="M28.4261 11.6173C27.0867 12.9598 27.0867 15.1453 28.4261 16.4879L33.2853 11.6173C31.9459 10.2747 29.7655 10.2747 28.4261 11.6173Z" fill="white"></path><path d="M16.2468 28.6949L11.3773 23.814L1.63814 33.5758L6.5077 38.4568L16.2468 28.6949Z" fill="#0B0AA3"></path><path d="M21.1161 33.5758L16.2465 28.6948L6.50741 38.4567L11.377 43.3377L21.1161 33.5758Z" fill="white"></path><path d="M11.3771 40.4793C13.2164 40.4793 14.9457 39.7613 16.2465 38.4575C17.5473 37.1536 18.2637 35.4203 18.2637 33.5766C18.2637 31.733 17.5473 29.9996 16.2465 28.6958L6.50763 38.4575C7.80844 39.7613 9.53774 40.4793 11.3771 40.4793Z" fill="#0B0AA3"></path><path d="M6.5069 28.6952C5.2061 29.9991 4.48975 31.7324 4.48975 33.576C4.48975 35.4197 5.2061 37.153 6.5069 38.4569L16.2458 28.6952C14.945 27.3914 13.2157 26.6733 11.3763 26.6733C9.53701 26.6733 7.8077 27.3914 6.5069 28.6952Z" fill="white"></path><path d="M11.3771 38.7493C12.737 38.7493 14.0414 38.2226 15.0267 37.2351C16.0119 36.2475 16.5374 34.94 16.5374 33.577C16.5374 32.214 16.0119 30.9065 15.0267 29.9189L7.72761 37.2351C8.71287 38.2226 10.0173 38.7493 11.3771 38.7493Z" fill="white"></path><path d="M7.72682 29.918C6.74156 30.9056 6.21614 32.2131 6.21614 33.5761C6.21614 34.9391 6.74156 36.2466 7.72682 37.2341L15.0259 29.918C14.0406 28.9305 12.7362 28.4038 11.3764 28.4038C10.0165 28.4038 8.71208 28.9305 7.72682 29.918Z" fill="#0B0AA3"></path><path d="M13.8067 36.0112C15.1461 34.6687 15.1461 32.4832 13.8067 31.1406L8.94747 36.0112C10.2869 37.3538 12.4673 37.3538 13.8067 36.0112Z" fill="#0B0AA3"></path><path d="M8.94746 31.1412C7.60804 32.4837 7.60804 34.6692 8.94746 36.0118L13.8067 31.1412C12.4673 29.7986 10.2869 29.7986 8.94746 31.1412Z" fill="white"></path><path d="M35.7248 28.6949L30.8553 23.814L21.1162 33.5758L25.9857 38.4568L35.7248 28.6949Z" fill="#0B0AA3"></path><path d="M40.5941 33.5767L35.7245 28.6958L25.9854 38.4577L30.855 43.3386L40.5941 33.5767Z" fill="white"></path><path d="M30.8557 40.4793C32.695 40.4793 34.4243 39.7613 35.7251 38.4575C37.0259 37.1536 37.7422 35.4203 37.7422 33.5766C37.7422 31.733 37.0259 29.9996 35.7251 28.6958L25.9862 38.4575C27.287 39.7613 29.0163 40.4793 30.8557 40.4793Z" fill="#0B0AA3"></path><path d="M25.9855 28.6957C24.6847 29.9995 23.9684 31.7329 23.9684 33.5765C23.9684 35.4202 24.6847 37.1535 25.9855 38.4573L35.7244 28.6957C34.4236 27.3919 32.6943 26.6738 30.855 26.6738C29.0156 26.6738 27.2863 27.3919 25.9855 28.6957Z" fill="white"></path><path d="M30.8557 38.7493C32.2155 38.7493 33.5199 38.2226 34.5052 37.2351C35.4904 36.2475 36.0159 34.94 36.0159 33.577C36.0159 32.214 35.4904 30.9065 34.5052 29.9189L27.2061 37.2351C28.1914 38.2226 29.4958 38.7493 30.8557 38.7493Z" fill="white"></path><path d="M27.2054 29.9185C26.2201 30.9061 25.6947 32.2136 25.6947 33.5766C25.6947 34.9396 26.2201 36.2471 27.2054 37.2346L34.5045 29.9185C33.5192 28.9309 32.2148 28.4043 30.8549 28.4043C29.4951 28.4043 28.1907 28.9309 27.2054 29.9185Z" fill="#0B0AA3"></path><path d="M33.2853 36.0117C34.6247 34.6692 34.6247 32.4837 33.2853 31.1411L28.426 36.0117C29.7655 37.3543 31.9459 37.3543 33.2853 36.0117Z" fill="#0B0AA3"></path><path d="M28.426 31.1412C27.0866 32.4837 27.0866 34.6692 28.426 36.0118L33.2853 31.1412C31.9459 29.7986 29.7655 29.7986 28.426 31.1412Z" fill="white"></path><path d="M26.0257 18.9889L21.1562 14.1079L11.4171 23.8698L16.2866 28.7507L26.0257 18.9889Z" fill="#0B0AA3"></path><path d="M30.8949 23.8707L26.0253 18.9897L16.2862 28.7516L21.1558 33.6326L30.8949 23.8707Z" fill="white"></path><path d="M21.1565 30.7733C22.9958 30.7733 24.7251 30.0552 26.0259 28.7514C27.3267 27.4476 28.0431 25.7142 28.0431 23.8706C28.0431 22.0269 27.3267 20.2936 26.0259 18.9897L16.2871 28.7514C17.5879 30.0552 19.3172 30.7733 21.1565 30.7733Z" fill="#0B0AA3"></path><path d="M16.2863 18.9896C14.9855 20.2935 14.2692 22.0268 14.2692 23.8705C14.2692 25.7141 14.9855 27.4475 16.2863 28.7513L26.0252 18.9896C24.7244 17.6858 22.9951 16.9678 21.1558 16.9678C19.3164 16.9678 17.5871 17.6858 16.2863 18.9896Z" fill="white"></path><path d="M21.1564 29.0437C22.5163 29.0437 23.8207 28.5171 24.806 27.5295C25.7912 26.5419 26.3167 25.2344 26.3167 23.8714C26.3167 22.5084 25.7912 21.2009 24.806 20.2134L17.5069 27.5295C18.4922 28.5171 19.7966 29.0437 21.1564 29.0437Z" fill="white"></path><path d="M17.5062 20.2125C16.5209 21.2 15.9955 22.5075 15.9955 23.8705C15.9955 25.2335 16.5209 26.541 17.5062 27.5286L24.8052 20.2125C23.82 19.2249 22.5155 18.6982 21.1557 18.6982C19.7959 18.6982 18.4914 19.2249 17.5062 20.2125Z" fill="#0B0AA3"></path><path d="M23.5861 26.3057C24.9255 24.9631 24.9255 22.7776 23.5861 21.4351L18.7268 26.3057C20.0663 27.6482 22.2466 27.6482 23.5861 26.3057Z" fill="#0B0AA3"></path><path d="M18.7268 21.4351C17.3874 22.7777 17.3874 24.9632 18.7268 26.3057L23.5861 21.4351C22.2466 20.0926 20.0662 20.0926 18.7268 21.4351Z" fill="white"></path><path d="M1.85625 -5.4716L-3.01331 -10.3525L-12.7524 -0.590655L-7.88286 4.29029L1.85625 -5.4716Z" fill="white"></path><path d="M1.85577 43.339L1.85577 33.5767L-7.88311 43.339L1.85577 43.339Z" fill="#0B0AA3"></path><path d="M-5.03082 43.3392L1.85577 43.3392L1.85577 36.4365C0.0164337 36.4365 -1.71287 37.1545 -3.01367 38.4584C-4.31447 39.7622 -5.03082 41.4956 -5.03082 43.3392Z" fill="white"></path><path d="M-3.30444 43.3393L1.85577 43.3393L1.85577 38.167C0.495945 38.167 -0.8085 38.6936 -1.79376 39.6812C-2.77901 40.6688 -3.30444 41.9763 -3.30444 43.3393Z" fill="#0B0AA3"></path><path d="M-1.57878 43.3391L1.85577 43.3391L1.85577 39.8965C0.976185 39.8965 0.0958665 40.2325 -0.573846 40.9038C-1.24356 41.575 -1.57878 42.4574 -1.57878 43.3391Z" fill="white"></path><path d="M1.85565 -5.47119L-7.88323 4.29046L-3.01379 9.17129L1.85565 4.29046L1.85565 -5.47119Z" fill="#0B0AA3"></path><path d="M1.85583 4.29053L-3.01361 9.17135L1.85583 14.0522L1.85583 4.29053Z" fill="white"></path><path d="M1.85583 4.29053L-3.01361 9.17135C-1.71281 10.4752 0.0164945 11.1932 1.85583 11.1932L1.85583 4.29053Z" fill="#0B0AA3"></path><path d="M1.85583 -2.61182C0.0164948 -2.61182 -1.71281 -1.89379 -3.01361 -0.589948C-4.31441 0.713895 -5.03076 2.44724 -5.03076 4.29088C-5.03076 6.13452 -4.31441 7.86786 -3.01361 9.1717L1.85583 4.29088L1.85583 -2.61182Z" fill="white"></path><path d="M1.85583 4.29053L-1.7937 7.94859C-0.80844 8.93615 0.496005 9.4628 1.85583 9.4628L1.85583 4.29053Z" fill="white"></path><path d="M1.85583 -0.881348C0.496006 -0.881348 -0.808439 -0.354697 -1.7937 0.632863C-2.77895 1.62042 -3.30437 2.92792 -3.30437 4.29093C-3.30437 5.65393 -2.77895 6.96143 -1.7937 7.94899L1.85583 4.29093L1.85583 -0.881348Z" fill="#0B0AA3"></path><path d="M1.85583 4.29053L-0.573785 6.72583C0.0959271 7.3971 0.976245 7.73311 1.85583 7.73311L1.85583 4.29053Z" fill="#0B0AA3"></path><path d="M1.85583 0.848145C0.976246 0.848144 0.0959273 1.18415 -0.573785 1.85543C-1.91321 3.19798 -1.91321 5.38347 -0.573785 6.72603L1.85583 4.29073L1.85583 0.848145Z" fill="white"></path><path d="M1.85565 14.0522L-7.88323 23.8146L-3.01379 28.6955L1.85565 23.8146L1.85565 14.0522Z" fill="#0B0AA3"></path><path d="M1.85583 23.8145L-3.01361 28.6953L1.85583 33.5761L1.85583 23.8145Z" fill="white"></path><path d="M1.85583 23.8145L-3.01361 28.6953C-1.71281 29.9991 0.0164945 30.7171 1.85583 30.7171L1.85583 23.8145Z" fill="#0B0AA3"></path><path d="M1.85583 16.9121C0.0164948 16.9121 -1.71281 17.6301 -3.01361 18.934C-4.31441 20.2378 -5.03076 21.9712 -5.03076 23.8148C-5.03076 25.6584 -4.31441 27.3918 -3.01361 28.6956L1.85583 23.8148L1.85583 16.9121Z" fill="white"></path><path d="M1.85583 23.8145L-1.7937 27.4725C-0.80844 28.4601 0.496005 28.9867 1.85583 28.9867L1.85583 23.8145Z" fill="white"></path><path d="M1.85583 18.6416C0.496006 18.6416 -0.808439 19.1682 -1.7937 20.1558C-2.77895 21.1434 -3.30437 22.4509 -3.30437 23.8139C-3.30437 25.1769 -2.77895 26.4844 -1.7937 27.4719L1.85583 23.8146L1.85583 18.6423L1.85583 18.6416Z" fill="#0B0AA3"></path><path d="M1.85583 23.8145L-0.573785 26.2498C0.0959271 26.921 0.976245 27.257 1.85583 27.257L1.85583 23.8145Z" fill="#0B0AA3"></path><path d="M1.85583 20.3721C0.976246 20.3721 0.0959273 20.7081 -0.573785 21.3794C-1.91321 22.7219 -1.91321 24.9074 -0.573785 26.25L1.85583 23.8147L1.85583 20.3721Z" fill="white"></path><path d="M1.85582 14.0528L-3.01373 9.17188L-12.7528 18.9338L-7.88329 23.8147L1.85582 14.0528Z" fill="white"></path><path d="M1.85546 33.5763L-3.0141 28.6953L-12.7532 38.4572L-7.88366 43.3381L1.85546 33.5763Z" fill="white"></path></g><path d="M38.9121 10.8108C41.9024 10.8108 44.3266 8.39073 44.3266 5.4054C44.3266 2.42008 41.9024 0 38.9121 0C35.9217 0 33.4976 2.42008 33.4976 5.4054C33.4976 8.39073 35.9217 10.8108 38.9121 10.8108Z" fill="white"></path></g><defs><clipPath id="clip0_2349_30887"><rect width="43.5556" height="40" fill="white" transform="translate(0.770996)"></rect></clipPath></defs></svg>