<svg xmlns="http://www.w3.org/2000/svg" width="45" height="40" viewBox="0 0 45 40" fill="none"><g clip-path="url(#clip0_2349_29943)"><mask id="mask0_2349_29943" style="mask-type:alpha" maskUnits="userSpaceOnUse" x="-39" y="0" width="80" height="80"><path d="M40.2873 39.9168C40.2873 61.7807 22.563 79.5049 0.699094 79.5049C-21.1648 79.5049 -38.8891 61.7807 -38.8891 39.9168C-38.8891 18.0528 -21.1648 0.328614 0.699097 0.328614C22.563 0.328615 40.2873 18.0528 40.2873 39.9168ZM-15.7655 39.9168C-15.7655 49.0099 -8.39407 56.3814 0.699095 56.3814C9.79225 56.3814 17.1637 49.0099 17.1637 39.9168C17.1637 30.8236 9.79225 23.4522 0.699096 23.4522C-8.39406 23.4522 -15.7655 30.8236 -15.7655 39.9168Z" fill="#D9D9D9"></path></mask><g mask="url(#mask0_2349_29943)"><path d="M21.0198 -5.4716L16.1502 -10.3525L6.41109 -0.590655L11.2806 4.29029L21.0198 -5.4716Z" fill="#ABD037"></path><path d="M11.2806 1.43098C13.12 1.43098 14.8493 0.712955 16.1501 -0.590887C17.4509 -1.89473 18.1672 -3.62807 18.1672 -5.47171C18.1672 -7.31535 17.4509 -9.0487 16.1501 -10.3525L6.4112 -0.590888C7.712 0.712955 9.4413 1.43098 11.2806 1.43098Z" fill="#0B0AA3"></path><path d="M40.4984 -5.4716L35.6288 -10.3525L25.8897 -0.590655L30.7593 4.29029L40.4984 -5.4716Z" fill="#ABD037"></path><path d="M30.7591 1.43147C32.5984 1.43147 34.3277 0.713444 35.6285 -0.590399C36.9293 -1.89424 37.6457 -3.62758 37.6457 -5.47123C37.6457 -7.31487 36.9293 -9.04821 35.6285 -10.3521L25.8897 -0.5904C27.1905 0.713443 28.9198 1.43147 30.7591 1.43147Z" fill="#0B0AA3"></path><path d="M1.54099 33.5762L1.54099 43.3386L6.41043 38.4577L1.54099 33.5762Z" fill="#0B0AA3"></path><path d="M6.41044 38.458L1.541 43.3388L11.2806 43.3388L6.41044 38.458Z" fill="#ABD037"></path><path d="M6.41043 38.458L1.54099 43.3388L8.42758 43.3388C8.42758 41.4952 7.71123 39.7619 6.41043 38.458Z" fill="#0B0AA3"></path><path d="M1.54099 36.436L1.54099 43.3387L6.41043 38.4579C5.10963 37.1541 3.38033 36.436 1.54099 36.436Z" fill="#ABD037"></path><path d="M5.19053 39.6807L1.54099 43.3387L6.7012 43.3387C6.7012 41.9757 6.17578 40.6682 5.19053 39.6807Z" fill="#ABD037"></path><path d="M1.54096 38.1655L1.54096 43.3378L5.19049 39.6797C4.20523 38.6922 2.90079 38.1655 1.54096 38.1655Z" fill="#0B0AA3"></path><path d="M1.54096 39.896L1.54096 43.3386L3.97058 40.9033C3.30087 40.232 2.42055 39.896 1.54096 39.896Z" fill="#ABD037"></path><path d="M11.2805 43.3386L21.0194 43.3386L25.8888 38.4577L21.0194 33.5762L11.2805 43.3386Z" fill="#0B0AA3"></path><path d="M25.8888 38.458L21.0194 43.3388L30.759 43.3388L25.8888 38.458Z" fill="#ABD037"></path><path d="M25.8888 38.458L21.0193 43.3388L27.9059 43.3388C27.9059 41.4952 27.1896 39.7619 25.8888 38.458Z" fill="#0B0AA3"></path><path d="M16.1499 38.4579C14.8491 39.7617 14.1328 41.4951 14.1328 43.3387L21.0194 43.3387L25.8888 38.4579C24.588 37.1541 22.8587 36.436 21.0194 36.436C19.18 36.436 17.4507 37.1541 16.1499 38.4579Z" fill="#ABD037"></path><path d="M24.6689 39.6807L21.0194 43.3387L26.1796 43.3387C26.1796 41.9757 25.6541 40.6682 24.6689 39.6807Z" fill="#ABD037"></path><path d="M17.3698 39.6807C16.3846 40.6683 15.8591 41.9758 15.8591 43.3388L21.0201 43.3388L24.6696 39.6807C23.6844 38.6932 22.3799 38.1665 21.0201 38.1665C19.6603 38.1665 18.3558 38.6932 17.3706 39.6807L17.3698 39.6807Z" fill="#0B0AA3"></path><path d="M18.5898 40.9034C17.9201 41.5747 17.5848 42.4571 17.5848 43.3387L21.0194 43.3387L23.449 40.9034C22.1096 39.5608 19.9292 39.5608 18.5898 40.9034Z" fill="#ABD037"></path><path d="M30.759 43.3386L40.4979 43.3386L45.3674 38.4577L40.4979 33.5762L30.759 43.3386Z" fill="#0B0AA3"></path><path d="M35.6285 38.4579C34.3277 39.7617 33.6113 41.4951 33.6113 43.3387L40.4979 43.3387L45.3674 38.4579C44.0666 37.1541 42.3373 36.436 40.4979 36.436C38.6586 36.436 36.9293 37.1541 35.6285 38.4579Z" fill="#ABD037"></path><path d="M36.8484 39.6807C35.8631 40.6683 35.3377 41.9758 35.3377 43.3388L40.4979 43.3388L44.1474 39.6807C43.1622 38.6932 41.8577 38.1665 40.4979 38.1665C39.1381 38.1665 37.8336 38.6932 36.8484 39.6807Z" fill="#0B0AA3"></path><path d="M38.0683 40.9034C37.3986 41.5747 37.0633 42.4571 37.0633 43.3387L40.4979 43.3387L42.9275 40.9034C41.5881 39.5608 39.4077 39.5608 38.0683 40.9034Z" fill="#ABD037"></path><path d="M1.54102 4.2907L6.41046 -0.590124L1.54102 -5.47168L1.54102 -5.47095L1.54102 4.2907Z" fill="#0B0AA3"></path><path d="M1.541 4.29001L1.54099 14.0517L11.2806 4.29001L6.41044 -0.590821L1.541 4.29001Z" fill="#ABD037"></path><path d="M1.54102 4.29001L1.54102 11.1927C3.38036 11.1927 5.10966 10.4747 6.41046 9.17083C7.71126 7.86699 8.42761 6.13365 8.42761 4.29001C8.42761 2.44637 7.71126 0.713022 6.41046 -0.59082L1.54102 4.29001Z" fill="#0B0AA3"></path><path d="M1.54102 4.29039L6.41046 -0.590436C5.10966 -1.89428 3.38036 -2.6123 1.54102 -2.61231L1.54102 4.29039Z" fill="#ABD037"></path><path d="M1.54102 4.2899L1.54102 9.46217C2.90085 9.46217 4.2053 8.93552 5.19056 7.94796C6.17581 6.9604 6.70123 5.65291 6.70123 4.2899C6.70123 2.92689 6.17581 1.6194 5.19056 0.631836L1.54102 4.2899Z" fill="#ABD037"></path><path d="M1.54099 4.28995L5.19052 0.631887C4.20526 -0.355673 2.90082 -0.882324 1.54099 -0.882324L1.54099 4.28995Z" fill="#0B0AA3"></path><path d="M1.54097 4.29028L1.54097 7.73286C2.42056 7.73286 3.30088 7.39686 3.97059 6.72558C5.31001 5.38303 5.31001 3.19754 3.97059 1.85498L1.54097 4.29028Z" fill="#0B0AA3"></path><path d="M1.54099 4.29073L3.97061 1.85543C3.3009 1.18415 2.42058 0.848144 1.54099 0.848144L1.54099 4.29073Z" fill="#ABD037"></path><path d="M25.8889 -0.590248L21.0193 -5.47119L11.2802 4.29069L16.1498 9.17164L25.8889 -0.590248Z" fill="#0B0AA3"></path><path d="M30.7581 4.29012L25.8885 -0.59082L16.1494 9.17106L21.019 14.052L30.7581 4.29012Z" fill="#ABD037"></path><path d="M21.0195 11.1932C22.8588 11.1932 24.5881 10.4752 25.8889 9.17132C27.1897 7.86748 27.9061 6.13413 27.9061 4.29049C27.9061 2.44685 27.1897 0.71351 25.8889 -0.590332L16.1501 9.17132C17.4509 10.4752 19.1802 11.1932 21.0195 11.1932Z" fill="#0B0AA3"></path><path d="M16.1498 -0.589948C14.849 0.713895 14.1327 2.44724 14.1327 4.29088C14.1327 6.13452 14.849 7.86786 16.1498 9.1717L25.8887 -0.589947C24.5879 -1.89379 22.8586 -2.61182 21.0193 -2.61182C19.18 -2.61182 17.4506 -1.89379 16.1498 -0.589948Z" fill="#ABD037"></path><path d="M21.0193 9.46315C22.3792 9.46315 23.6836 8.9365 24.6689 7.94894C25.6541 6.96138 26.1795 5.65388 26.1795 4.29088C26.1795 2.92787 25.6541 1.62037 24.6689 0.632812L17.3698 7.94894C18.3551 8.9365 19.6595 9.46315 21.0193 9.46315Z" fill="#ABD037"></path><path d="M17.3698 0.632863C16.3846 1.62042 15.8591 2.92792 15.8591 4.29093C15.8591 5.65393 16.3846 6.96143 17.3698 7.94899L24.6689 0.632863C23.6836 -0.354697 22.3792 -0.881348 21.0194 -0.881348C19.6595 -0.881348 18.3551 -0.354697 17.3698 0.632863Z" fill="#0B0AA3"></path><path d="M23.449 6.72607C24.7884 5.38351 24.7884 3.19802 23.449 1.85547L18.5897 6.72607C19.9291 8.06862 22.1095 8.06862 23.449 6.72607Z" fill="#0B0AA3"></path><path d="M18.5897 1.85604C17.2503 3.19859 17.2503 5.38408 18.5897 6.72664L23.4489 1.85604C22.1095 0.513482 19.9291 0.513482 18.5897 1.85604Z" fill="#ABD037"></path><path d="M45.3677 -0.590248L40.4981 -5.47119L30.759 4.29069L35.6286 9.17164L45.3677 -0.590248Z" fill="#0B0AA3"></path><path d="M50.237 4.29061L45.3675 -0.590332L35.6283 9.17155L40.4979 14.0525L50.237 4.29061Z" fill="#ABD037"></path><path d="M40.498 11.1932C42.3374 11.1932 44.0667 10.4752 45.3675 9.17132C46.6683 7.86748 47.3846 6.13413 47.3846 4.29049C47.3846 2.44685 46.6683 0.71351 45.3675 -0.590332L35.6286 9.17132C36.9294 10.4752 38.6587 11.1932 40.498 11.1932Z" fill="#0B0AA3"></path><path d="M35.6286 -0.589948C34.3278 0.713895 33.6114 2.44724 33.6114 4.29088C33.6114 6.13452 34.3278 7.86786 35.6286 9.1717L45.3675 -0.589947C44.0667 -1.89379 42.3374 -2.61182 40.498 -2.61182C38.6587 -2.61182 36.9294 -1.89379 35.6286 -0.589948Z" fill="#ABD037"></path><path d="M40.498 9.46315C41.8578 9.46315 43.1622 8.9365 44.1475 7.94894C45.1327 6.96138 45.6582 5.65388 45.6582 4.29088C45.6582 2.92787 45.1328 1.62037 44.1475 0.632812L36.8484 7.94894C37.8337 8.9365 39.1381 9.46315 40.498 9.46315Z" fill="#ABD037"></path><path d="M36.8485 0.632863C35.8632 1.62042 35.3378 2.92792 35.3378 4.29093C35.3378 5.65393 35.8632 6.96143 36.8485 7.94899L44.1475 0.632863C43.1623 -0.354697 41.8578 -0.881348 40.498 -0.881348C39.1382 -0.881348 37.8337 -0.354697 36.8485 0.632863Z" fill="#0B0AA3"></path><path d="M42.9276 6.72607C44.267 5.38351 44.267 3.19802 42.9276 1.85547L38.0684 6.72607C39.4078 8.06862 41.5882 8.06862 42.9276 6.72607Z" fill="#0B0AA3"></path><path d="M38.0684 1.85604C36.7289 3.19859 36.7289 5.38408 38.0684 6.72664L42.9276 1.85604C41.5882 0.513482 39.4078 0.513482 38.0684 1.85604Z" fill="#ABD037"></path><path d="M1.5409 23.8146L6.41034 18.9338L1.5409 14.0522L1.5409 23.8146Z" fill="#0B0AA3"></path><path d="M1.54087 23.8149L1.54087 33.5766L11.2805 23.8149L6.41032 18.9341L1.54087 23.8149Z" fill="#ABD037"></path><path d="M1.54086 23.8149L1.54086 30.7176C3.3802 30.7176 5.10951 29.9996 6.41031 28.6957C7.71111 27.3919 8.42746 25.6585 8.42746 23.8149C8.42746 21.9713 7.71111 20.2379 6.41031 18.9341L1.54086 23.8149Z" fill="#0B0AA3"></path><path d="M1.54087 23.8148L6.41031 18.934C5.10951 17.6301 3.38021 16.9121 1.54087 16.9121L1.54087 23.8148Z" fill="#ABD037"></path><path d="M1.54087 23.8148L1.54087 28.9871C2.9007 28.9871 4.20515 28.4604 5.1904 27.4729C6.17566 26.4853 6.70108 25.1778 6.70108 23.8148C6.70108 22.4518 6.17566 21.1443 5.1904 20.1567L1.54087 23.8148Z" fill="#ABD037"></path><path d="M1.54087 23.8149L5.1904 20.1568C4.20514 19.1692 2.9007 18.6426 1.54087 18.6426L1.54087 23.8149Z" fill="#0B0AA3"></path><path d="M1.54085 23.8152L1.54085 27.2578C2.42044 27.2578 3.30076 26.9218 3.97047 26.2505C5.30989 24.9079 5.30989 22.7224 3.97047 21.3799L1.54085 23.8152Z" fill="#0B0AA3"></path><path d="M1.54084 23.8147L3.97046 21.3794C3.30075 20.7081 2.42043 20.3721 1.54084 20.3721L1.54084 23.8147Z" fill="#ABD037"></path><path d="M45.3678 18.9337L40.4982 14.0527L30.7591 23.8146L35.6287 28.6956L45.3678 18.9337Z" fill="#0B0AA3"></path><path d="M50.2371 23.8145L45.3676 18.9336L35.6284 28.6955L40.498 33.5764L50.2371 23.8145Z" fill="#ABD037"></path><path d="M40.498 30.7171C42.3373 30.7171 44.0666 29.9991 45.3674 28.6952C46.6682 27.3914 47.3846 25.6581 47.3846 23.8144C47.3846 21.9708 46.6682 20.2374 45.3674 18.9336L35.6285 28.6952C36.9293 29.9991 38.6586 30.7171 40.498 30.7171Z" fill="#0B0AA3"></path><path d="M35.6285 18.9335C34.3277 20.2373 33.6114 21.9707 33.6114 23.8143C33.6114 25.658 34.3277 27.3913 35.6285 28.6951L45.3674 18.9335C44.0666 17.6296 42.3373 16.9116 40.498 16.9116C38.6586 16.9116 36.9294 17.6296 35.6285 18.9335Z" fill="#ABD037"></path><path d="M40.498 28.9866C41.8578 28.9866 43.1622 28.4599 44.1475 27.4724C45.1327 26.4848 45.6582 25.1773 45.6582 23.8143C45.6582 22.4513 45.1328 21.1438 44.1475 20.1562L36.8484 27.4724C37.8337 28.4599 39.1381 28.9866 40.498 28.9866Z" fill="#ABD037"></path><path d="M36.8484 20.1563C35.8631 21.1439 35.3377 22.4514 35.3377 23.8144C35.3377 25.1774 35.8631 26.4849 36.8484 27.4724L44.1475 20.1563C43.1622 19.1687 41.8578 18.6421 40.4979 18.6421C39.1381 18.6421 37.8337 19.1687 36.8484 20.1563Z" fill="#0B0AA3"></path><path d="M42.9276 26.25C44.267 24.9074 44.267 22.722 42.9276 21.3794L38.0684 26.25C39.4078 27.5925 41.5882 27.5926 42.9276 26.25Z" fill="#0B0AA3"></path><path d="M38.0684 21.379C36.7289 22.7215 36.7289 24.907 38.0684 26.2496L42.9276 21.379C41.5882 20.0364 39.4078 20.0364 38.0684 21.379Z" fill="#ABD037"></path><path d="M16.1502 9.17098L11.2806 4.29004L1.54152 14.0519L6.41108 18.9329L16.1502 9.17098Z" fill="#0B0AA3"></path><path d="M21.0199 14.0533L16.1504 9.17236L6.41127 18.9342L11.2808 23.8152L21.0199 14.0533Z" fill="#ABD037"></path><path d="M11.2806 20.9559C13.12 20.9559 14.8493 20.2379 16.1501 18.934C17.4509 17.6302 18.1672 15.8968 18.1672 14.0532C18.1672 12.2095 17.4509 10.4762 16.1501 9.17236L6.4112 18.934C7.712 20.2379 9.4413 20.9559 11.2806 20.9559Z" fill="#0B0AA3"></path><path d="M6.41068 9.17177C5.10988 10.4756 4.39353 12.209 4.39353 14.0526C4.39353 15.8962 5.10988 17.6296 6.41068 18.9334L16.1496 9.17177C14.8488 7.86793 13.1195 7.1499 11.2801 7.1499C9.44078 7.1499 7.71148 7.86793 6.41068 9.17177Z" fill="#ABD037"></path><path d="M11.2807 19.2258C12.6405 19.2258 13.9449 18.6992 14.9302 17.7116C15.9155 16.7241 16.4409 15.4166 16.4409 14.0536C16.4409 12.6906 15.9155 11.3831 14.9302 10.3955L7.63115 17.7116C8.6164 18.6992 9.92085 19.2258 11.2807 19.2258Z" fill="#ABD037"></path><path d="M7.63041 10.3946C6.64516 11.3821 6.11974 12.6896 6.11974 14.0526C6.11974 15.4157 6.64516 16.7231 7.63041 17.7107L14.9295 10.3946C13.9442 9.40702 12.6398 8.88037 11.2799 8.88037C9.92012 8.88037 8.61567 9.40702 7.63041 10.3946Z" fill="#0B0AA3"></path><path d="M13.7103 16.4883C15.0497 15.1457 15.0497 12.9602 13.7103 11.6177L8.85107 16.4883C10.1905 17.8308 12.3709 17.8308 13.7103 16.4883Z" fill="#0B0AA3"></path><path d="M8.85106 11.6173C7.51163 12.9598 7.51163 15.1453 8.85106 16.4879L13.7103 11.6173C12.3709 10.2747 10.1905 10.2747 8.85106 11.6173Z" fill="#ABD037"></path><path d="M35.628 9.17147L30.7585 4.29053L21.0194 14.0524L25.8889 18.9334L35.628 9.17147Z" fill="#0B0AA3"></path><path d="M40.4985 14.0528L35.629 9.17188L25.8899 18.9338L30.7594 23.8147L40.4985 14.0528Z" fill="#ABD037"></path><path d="M30.7591 20.9559C32.5984 20.9559 34.3277 20.2379 35.6285 18.934C36.9293 17.6302 37.6457 15.8968 37.6457 14.0532C37.6457 12.2095 36.9293 10.4762 35.6285 9.17236L25.8896 18.934C27.1904 20.2379 28.9197 20.9559 30.7591 20.9559Z" fill="#0B0AA3"></path><path d="M25.8889 9.17128C24.5881 10.4751 23.8717 12.2085 23.8717 14.0521C23.8717 15.8957 24.5881 17.6291 25.8889 18.9329L35.6278 9.17128C34.327 7.86744 32.5977 7.14941 30.7583 7.14941C28.919 7.14941 27.1897 7.86744 25.8889 9.17128Z" fill="#ABD037"></path><path d="M30.759 19.2254C32.1189 19.2254 33.4233 18.6987 34.4086 17.7111C35.3938 16.7236 35.9193 15.4161 35.9193 14.0531C35.9193 12.6901 35.3938 11.3826 34.4086 10.395L27.1095 17.7111C28.0948 18.6987 29.3992 19.2254 30.759 19.2254Z" fill="#ABD037"></path><path d="M27.1088 10.3941C26.1235 11.3817 25.5981 12.6891 25.5981 14.0522C25.5981 15.4152 26.1235 16.7227 27.1088 17.7102L34.4079 10.3941C33.4226 9.40653 32.1182 8.87988 30.7583 8.87988C29.3985 8.87988 28.0941 9.40653 27.1088 10.3941Z" fill="#0B0AA3"></path><path d="M33.1887 16.4873C34.5281 15.1447 34.5281 12.9593 33.1887 11.6167L28.3295 16.4873C29.6689 17.8299 31.8493 17.8299 33.1887 16.4873Z" fill="#0B0AA3"></path><path d="M28.3295 11.6173C26.99 12.9598 26.99 15.1453 28.3295 16.4879L33.1887 11.6173C31.8493 10.2747 29.6689 10.2747 28.3295 11.6173Z" fill="#ABD037"></path><path d="M16.1502 28.6949L11.2806 23.814L1.54152 33.5758L6.41108 38.4568L16.1502 28.6949Z" fill="#0B0AA3"></path><path d="M21.0195 33.5758L16.1499 28.6948L6.41079 38.4567L11.2803 43.3377L21.0195 33.5758Z" fill="#ABD037"></path><path d="M11.2805 40.4793C13.1198 40.4793 14.8491 39.7613 16.1499 38.4575C17.4507 37.1536 18.1671 35.4203 18.1671 33.5766C18.1671 31.733 17.4507 29.9996 16.1499 28.6958L6.41105 38.4575C7.71185 39.7613 9.44115 40.4793 11.2805 40.4793Z" fill="#0B0AA3"></path><path d="M6.41032 28.6952C5.10951 29.9991 4.39316 31.7324 4.39316 33.576C4.39316 35.4197 5.10951 37.153 6.41031 38.4569L16.1492 28.6952C14.8484 27.3914 13.1191 26.6733 11.2798 26.6733C9.44042 26.6733 7.71112 27.3914 6.41032 28.6952Z" fill="#ABD037"></path><path d="M11.2805 38.7493C12.6404 38.7493 13.9448 38.2226 14.9301 37.2351C15.9153 36.2475 16.4407 34.94 16.4407 33.577C16.4407 32.214 15.9153 30.9065 14.9301 29.9189L7.63099 37.2351C8.61625 38.2226 9.9207 38.7493 11.2805 38.7493Z" fill="#ABD037"></path><path d="M7.63017 29.918C6.64491 30.9056 6.11949 32.2131 6.11949 33.5761C6.11949 34.9391 6.64491 36.2466 7.63017 37.2341L14.9292 29.918C13.944 28.9305 12.6395 28.4038 11.2797 28.4038C9.91987 28.4038 8.61543 28.9305 7.63017 29.918Z" fill="#0B0AA3"></path><path d="M13.7101 36.0112C15.0495 34.6687 15.0495 32.4832 13.7101 31.1406L8.85085 36.0112C10.1903 37.3538 12.3707 37.3538 13.7101 36.0112Z" fill="#0B0AA3"></path><path d="M8.85084 31.1412C7.51142 32.4837 7.51142 34.6692 8.85084 36.0118L13.7101 31.1412C12.3707 29.7986 10.1903 29.7986 8.85084 31.1412Z" fill="#ABD037"></path><path d="M35.6282 28.6949L30.7586 23.814L21.0195 33.5758L25.8891 38.4568L35.6282 28.6949Z" fill="#0B0AA3"></path><path d="M40.4975 33.5767L35.6279 28.6958L25.8888 38.4577L30.7583 43.3386L40.4975 33.5767Z" fill="#ABD037"></path><path d="M30.759 40.4793C32.5984 40.4793 34.3277 39.7613 35.6285 38.4575C36.9293 37.1536 37.6456 35.4203 37.6456 33.5766C37.6456 31.733 36.9293 29.9996 35.6285 28.6958L25.8896 38.4575C27.1904 39.7613 28.9197 40.4793 30.759 40.4793Z" fill="#0B0AA3"></path><path d="M25.8889 28.6957C24.5881 29.9995 23.8717 31.7329 23.8717 33.5765C23.8717 35.4202 24.5881 37.1535 25.8889 38.4573L35.6277 28.6957C34.3269 27.3919 32.5976 26.6738 30.7583 26.6738C28.919 26.6738 27.1897 27.3919 25.8889 28.6957Z" fill="#ABD037"></path><path d="M30.759 38.7493C32.1188 38.7493 33.4233 38.2226 34.4085 37.2351C35.3938 36.2475 35.9192 34.94 35.9192 33.577C35.9192 32.214 35.3938 30.9065 34.4085 29.9189L27.1095 37.2351C28.0947 38.2226 29.3992 38.7493 30.759 38.7493Z" fill="#ABD037"></path><path d="M27.1088 29.9185C26.1235 30.9061 25.5981 32.2136 25.5981 33.5766C25.5981 34.9396 26.1235 36.2471 27.1088 37.2346L34.4078 29.9185C33.4226 28.9309 32.1181 28.4043 30.7583 28.4043C29.3985 28.4043 28.094 28.9309 27.1088 29.9185Z" fill="#0B0AA3"></path><path d="M33.1886 36.0117C34.5281 34.6692 34.5281 32.4837 33.1886 31.1411L28.3294 36.0117C29.6688 37.3543 31.8492 37.3543 33.1886 36.0117Z" fill="#0B0AA3"></path><path d="M28.3294 31.1412C26.99 32.4837 26.99 34.6692 28.3294 36.0118L33.1887 31.1412C31.8492 29.7986 29.6688 29.7986 28.3294 31.1412Z" fill="#ABD037"></path><path d="M25.9291 18.9889L21.0595 14.1079L11.3204 23.8698L16.19 28.7507L25.9291 18.9889Z" fill="#0B0AA3"></path><path d="M30.7982 23.8707L25.9287 18.9897L16.1896 28.7516L21.0591 33.6326L30.7982 23.8707Z" fill="#ABD037"></path><path d="M21.0599 30.7733C22.8992 30.7733 24.6285 30.0552 25.9293 28.7514C27.2301 27.4476 27.9465 25.7142 27.9465 23.8706C27.9465 22.0269 27.2301 20.2936 25.9293 18.9897L16.1904 28.7514C17.4912 30.0552 19.2205 30.7733 21.0599 30.7733Z" fill="#0B0AA3"></path><path d="M16.1897 18.9896C14.8889 20.2935 14.1725 22.0268 14.1725 23.8705C14.1725 25.7141 14.8889 27.4475 16.1897 28.7513L25.9286 18.9896C24.6278 17.6858 22.8985 16.9678 21.0591 16.9678C19.2198 16.9678 17.4905 17.6858 16.1897 18.9896Z" fill="#ABD037"></path><path d="M21.0598 29.0437C22.4196 29.0437 23.7241 28.5171 24.7093 27.5295C25.6946 26.5419 26.22 25.2344 26.22 23.8714C26.22 22.5084 25.6946 21.2009 24.7093 20.2134L17.4103 27.5295C18.3955 28.5171 19.7 29.0437 21.0598 29.0437Z" fill="#ABD037"></path><path d="M17.4095 20.2125C16.4243 21.2 15.8988 22.5075 15.8988 23.8705C15.8988 25.2335 16.4243 26.541 17.4095 27.5286L24.7086 20.2125C23.7233 19.2249 22.4189 18.6982 21.0591 18.6982C19.6992 18.6982 18.3948 19.2249 17.4095 20.2125Z" fill="#0B0AA3"></path><path d="M23.4894 26.3057C24.8288 24.9631 24.8288 22.7776 23.4894 21.4351L18.6302 26.3057C19.9696 27.6482 22.15 27.6482 23.4894 26.3057Z" fill="#0B0AA3"></path><path d="M18.6302 21.4351C17.2907 22.7777 17.2907 24.9632 18.6302 26.3057L23.4894 21.4351C22.15 20.0926 19.9696 20.0926 18.6302 21.4351Z" fill="#ABD037"></path><path d="M1.75957 -5.4716L-3.10999 -10.3525L-12.8491 -0.590655L-7.97954 4.29029L1.75957 -5.4716Z" fill="#ABD037"></path><path d="M1.75912 43.339L1.75912 33.5767L-7.97976 43.339L1.75912 43.339Z" fill="#0B0AA3"></path><path d="M-5.12747 43.3392L1.75912 43.3392L1.75912 36.4365C-0.0802155 36.4365 -1.80952 37.1545 -3.11032 38.4584C-4.41112 39.7622 -5.12747 41.4956 -5.12747 43.3392Z" fill="#ABD037"></path><path d="M-3.40108 43.3393L1.75912 43.3393L1.75912 38.167C0.399296 38.167 -0.905149 38.6936 -1.89041 39.6812C-2.87566 40.6688 -3.40108 41.9763 -3.40108 43.3393Z" fill="#0B0AA3"></path><path d="M-1.67543 43.3391L1.75912 43.3391L1.75912 39.8965C0.879535 39.8965 -0.000782634 40.2325 -0.670495 40.9038C-1.34021 41.575 -1.67543 42.4574 -1.67543 43.3391Z" fill="#ABD037"></path><path d="M1.75897 -5.47119L-7.97991 4.29046L-3.11047 9.17129L1.75897 4.29046L1.75897 -5.47119Z" fill="#0B0AA3"></path><path d="M1.75916 4.29053L-3.11029 9.17135L1.75915 14.0522L1.75916 4.29053Z" fill="#ABD037"></path><path d="M1.75916 4.29053L-3.11029 9.17135C-1.80949 10.4752 -0.0801852 11.1932 1.75915 11.1932L1.75916 4.29053Z" fill="#0B0AA3"></path><path d="M1.75916 -2.61182C-0.0801849 -2.61182 -1.80949 -1.89379 -3.11029 -0.589948C-4.41109 0.713895 -5.12744 2.44724 -5.12744 4.29088C-5.12744 6.13452 -4.41109 7.86786 -3.11029 9.1717L1.75915 4.29088L1.75916 -2.61182Z" fill="#ABD037"></path><path d="M1.75916 4.29053L-1.89038 7.94859C-0.905119 8.93615 0.399326 9.4628 1.75915 9.4628L1.75916 4.29053Z" fill="#ABD037"></path><path d="M1.75916 -0.881348C0.399326 -0.881348 -0.905119 -0.354697 -1.89038 0.632863C-2.87563 1.62042 -3.40105 2.92792 -3.40105 4.29093C-3.40105 5.65393 -2.87563 6.96143 -1.89038 7.94899L1.75915 4.29093L1.75916 -0.881348Z" fill="#0B0AA3"></path><path d="M1.75916 4.29053L-0.670465 6.72583C-0.000752558 7.3971 0.879566 7.73311 1.75916 7.73311L1.75916 4.29053Z" fill="#0B0AA3"></path><path d="M1.75916 0.848145C0.879566 0.848144 -0.000752355 1.18415 -0.670465 1.85543C-2.00989 3.19798 -2.00989 5.38347 -0.670465 6.72603L1.75916 4.29073L1.75916 0.848145Z" fill="#ABD037"></path><path d="M1.75897 14.0522L-7.97991 23.8146L-3.11047 28.6955L1.75897 23.8146L1.75897 14.0522Z" fill="#0B0AA3"></path><path d="M1.75916 23.8145L-3.11029 28.6953L1.75915 33.5761L1.75916 23.8145Z" fill="#ABD037"></path><path d="M1.75916 23.8145L-3.11029 28.6953C-1.80949 29.9991 -0.0801852 30.7171 1.75915 30.7171L1.75916 23.8145Z" fill="#0B0AA3"></path><path d="M1.75916 16.9121C-0.0801849 16.9121 -1.80949 17.6301 -3.11029 18.934C-4.41109 20.2378 -5.12744 21.9712 -5.12744 23.8148C-5.12744 25.6584 -4.41109 27.3918 -3.11029 28.6956L1.75915 23.8148L1.75916 16.9121Z" fill="#ABD037"></path><path d="M1.75916 23.8145L-1.89038 27.4725C-0.905119 28.4601 0.399326 28.9867 1.75915 28.9867L1.75916 23.8145Z" fill="#ABD037"></path><path d="M1.75916 18.6416C0.399326 18.6416 -0.905119 19.1682 -1.89038 20.1558C-2.87563 21.1434 -3.40105 22.4509 -3.40105 23.8139C-3.40105 25.1769 -2.87563 26.4844 -1.89038 27.4719L1.75915 23.8146L1.75916 18.6423L1.75916 18.6416Z" fill="#0B0AA3"></path><path d="M1.75916 23.8145L-0.670465 26.2498C-0.000752558 26.921 0.879566 27.257 1.75916 27.257L1.75916 23.8145Z" fill="#0B0AA3"></path><path d="M1.75916 20.3721C0.879566 20.3721 -0.000752355 20.7081 -0.670465 21.3794C-2.00989 22.7219 -2.00989 24.9074 -0.670465 26.25L1.75916 23.8147L1.75916 20.3721Z" fill="#ABD037"></path><path d="M1.75911 14.0528L-3.11044 9.17188L-12.8496 18.9338L-7.98 23.8147L1.75911 14.0528Z" fill="#ABD037"></path><path d="M1.75881 33.5763L-3.11075 28.6953L-12.8499 38.4572L-7.98031 43.3381L1.75881 33.5763Z" fill="#ABD037"></path></g><path d="M38.8154 10.8108C41.8057 10.8108 44.2299 8.39073 44.2299 5.4054C44.2299 2.42008 41.8057 0 38.8154 0C35.825 0 33.4009 2.42008 33.4009 5.4054C33.4009 8.39073 35.825 10.8108 38.8154 10.8108Z" fill="#ABD037"></path></g><defs><clipPath id="clip0_2349_29943"><rect width="43.5556" height="40" fill="white" transform="translate(0.674316)"></rect></clipPath></defs></svg>