<svg xmlns="http://www.w3.org/2000/svg" width="45" height="40" viewBox="0 0 45 40" fill="none"><g clip-path="url(#clip0_2349_28999)"><mask id="mask0_2349_28999" style="mask-type:alpha" maskUnits="userSpaceOnUse" x="-39" y="0" width="80" height="80"><path d="M40.5871 39.9168C40.5871 61.7807 22.8629 79.5049 0.99893 79.5049C-20.865 79.5049 -38.5892 61.7807 -38.5892 39.9168C-38.5892 18.0528 -20.865 0.328614 0.998932 0.328614C22.8629 0.328615 40.5871 18.0528 40.5871 39.9168ZM-15.4657 39.9168C-15.4657 49.0099 -8.09423 56.3814 0.99893 56.3814C10.0921 56.3814 17.4636 49.0099 17.4636 39.9168C17.4636 30.8236 10.0921 23.4522 0.998931 23.4522C-8.09423 23.4522 -15.4657 30.8236 -15.4657 39.9168Z" fill="#D9D9D9"></path></mask><g mask="url(#mask0_2349_28999)"><path d="M21.3196 -5.4716L16.4501 -10.3525L6.71096 -0.590655L11.5805 4.29029L21.3196 -5.4716Z" fill="#70C16B"></path><path d="M11.5804 1.43098C13.4198 1.43098 15.1491 0.712955 16.4499 -0.590887C17.7507 -1.89473 18.467 -3.62807 18.467 -5.47171C18.467 -7.31535 17.7507 -9.0487 16.4499 -10.3525L6.711 -0.590888C8.0118 0.712955 9.74111 1.43098 11.5804 1.43098Z" fill="#0B0AA3"></path><path d="M40.7983 -5.4716L35.9287 -10.3525L26.1896 -0.590655L31.0592 4.29029L40.7983 -5.4716Z" fill="#70C16B"></path><path d="M31.059 1.43147C32.8983 1.43147 34.6276 0.713444 35.9284 -0.590399C37.2292 -1.89424 37.9456 -3.62758 37.9456 -5.47123C37.9456 -7.31487 37.2292 -9.04821 35.9284 -10.3521L26.1895 -0.5904C27.4903 0.713443 29.2196 1.43147 31.059 1.43147Z" fill="#0B0AA3"></path><path d="M1.84088 33.5762L1.84088 43.3386L6.71033 38.4577L1.84088 33.5762Z" fill="#0B0AA3"></path><path d="M6.71027 38.458L1.84083 43.3388L11.5804 43.3388L6.71027 38.458Z" fill="#70C16B"></path><path d="M6.71026 38.458L1.84082 43.3388L8.72742 43.3388C8.72742 41.4952 8.01107 39.7619 6.71026 38.458Z" fill="#0B0AA3"></path><path d="M1.84088 36.436L1.84088 43.3387L6.71033 38.4579C5.40953 37.1541 3.68022 36.436 1.84088 36.436Z" fill="#70C16B"></path><path d="M5.49042 39.6807L1.84089 43.3387L7.0011 43.3387C7.0011 41.9757 6.47568 40.6682 5.49042 39.6807Z" fill="#70C16B"></path><path d="M1.84082 38.1655L1.84082 43.3378L5.49036 39.6797C4.5051 38.6922 3.20065 38.1655 1.84082 38.1655Z" fill="#0B0AA3"></path><path d="M1.84077 39.896L1.84077 43.3386L4.27039 40.9033C3.60067 40.232 2.72036 39.896 1.84077 39.896Z" fill="#70C16B"></path><path d="M11.5804 43.3386L21.3193 43.3386L26.1887 38.4577L21.3193 33.5762L11.5804 43.3386Z" fill="#0B0AA3"></path><path d="M26.1887 38.458L21.3192 43.3388L31.0588 43.3388L26.1887 38.458Z" fill="#70C16B"></path><path d="M26.1887 38.458L21.3192 43.3388L28.2058 43.3388C28.2058 41.4952 27.4895 39.7619 26.1887 38.458Z" fill="#0B0AA3"></path><path d="M16.4498 38.4579C15.149 39.7617 14.4327 41.4951 14.4327 43.3387L21.3193 43.3387L26.1887 38.4579C24.8879 37.1541 23.1586 36.436 21.3193 36.436C19.4799 36.436 17.7506 37.1541 16.4498 38.4579Z" fill="#70C16B"></path><path d="M24.9687 39.6807L21.3192 43.3387L26.4794 43.3387C26.4794 41.9757 25.9539 40.6682 24.9687 39.6807Z" fill="#70C16B"></path><path d="M17.6697 39.6807C16.6844 40.6683 16.159 41.9758 16.159 43.3388L21.3199 43.3388L24.9695 39.6807C23.9842 38.6932 22.6798 38.1665 21.32 38.1665C19.9601 38.1665 18.6557 38.6932 17.6704 39.6807L17.6697 39.6807Z" fill="#0B0AA3"></path><path d="M18.8897 40.9034C18.22 41.5747 17.8847 42.4571 17.8847 43.3387L21.3193 43.3387L23.7489 40.9034C22.4095 39.5608 20.2291 39.5608 18.8897 40.9034Z" fill="#70C16B"></path><path d="M31.0589 43.3386L40.7978 43.3386L45.6672 38.4577L40.7978 33.5762L31.0589 43.3386Z" fill="#0B0AA3"></path><path d="M35.9284 38.4579C34.6276 39.7617 33.9112 41.4951 33.9112 43.3387L40.7978 43.3387L45.6672 38.4579C44.3664 37.1541 42.6371 36.436 40.7978 36.436C38.9585 36.436 37.2292 37.1541 35.9284 38.4579Z" fill="#70C16B"></path><path d="M37.1482 39.6807C36.1629 40.6683 35.6375 41.9758 35.6375 43.3388L40.7977 43.3388L44.4473 39.6807C43.462 38.6932 42.1576 38.1665 40.7977 38.1665C39.4379 38.1665 38.1335 38.6932 37.1482 39.6807Z" fill="#0B0AA3"></path><path d="M38.3682 40.9034C37.6985 41.5747 37.3632 42.4571 37.3632 43.3387L40.7978 43.3387L43.2274 40.9034C41.888 39.5608 39.7076 39.5608 38.3682 40.9034Z" fill="#70C16B"></path><path d="M1.84088 4.2907L6.71033 -0.590124L1.84088 -5.47168L1.84088 -5.47095L1.84088 4.2907Z" fill="#0B0AA3"></path><path d="M1.84083 4.29001L1.84083 14.0517L11.5804 4.29001L6.71027 -0.590821L1.84083 4.29001Z" fill="#70C16B"></path><path d="M1.84082 4.29001L1.84082 11.1927C3.68016 11.1927 5.40946 10.4747 6.71026 9.17083C8.01107 7.86699 8.72742 6.13365 8.72742 4.29001C8.72742 2.44637 8.01107 0.713022 6.71026 -0.59082L1.84082 4.29001Z" fill="#0B0AA3"></path><path d="M1.84088 4.29039L6.71033 -0.590436C5.40953 -1.89428 3.68022 -2.6123 1.84088 -2.61231L1.84088 4.29039Z" fill="#70C16B"></path><path d="M1.84089 4.2899L1.84089 9.46217C3.20072 9.46217 4.50516 8.93552 5.49042 7.94796C6.47568 6.9604 7.0011 5.65291 7.0011 4.2899C7.0011 2.92689 6.47568 1.6194 5.49042 0.631836L1.84089 4.2899Z" fill="#70C16B"></path><path d="M1.84082 4.28995L5.49036 0.631887C4.5051 -0.355673 3.20065 -0.882324 1.84082 -0.882324L1.84082 4.28995Z" fill="#0B0AA3"></path><path d="M1.84084 4.29028L1.84084 7.73286C2.72043 7.73286 3.60074 7.39686 4.27046 6.72558C5.60988 5.38303 5.60988 3.19754 4.27046 1.85498L1.84084 4.29028Z" fill="#0B0AA3"></path><path d="M1.84089 4.29073L4.27051 1.85543C3.6008 1.18415 2.72048 0.848144 1.84089 0.848144L1.84089 4.29073Z" fill="#70C16B"></path><path d="M26.1888 -0.590248L21.3192 -5.47119L11.5801 4.29069L16.4497 9.17164L26.1888 -0.590248Z" fill="#0B0AA3"></path><path d="M31.058 4.29012L26.1885 -0.59082L16.4494 9.17106L21.3189 14.052L31.058 4.29012Z" fill="#70C16B"></path><path d="M21.3193 11.1932C23.1587 11.1932 24.888 10.4752 26.1888 9.17132C27.4896 7.86748 28.2059 6.13413 28.2059 4.29049C28.2059 2.44685 27.4896 0.71351 26.1888 -0.590332L16.4499 9.17132C17.7507 10.4752 19.48 11.1932 21.3193 11.1932Z" fill="#0B0AA3"></path><path d="M16.4497 -0.589948C15.1489 0.713895 14.4326 2.44724 14.4326 4.29088C14.4326 6.13452 15.1489 7.86786 16.4497 9.1717L26.1886 -0.589947C24.8878 -1.89379 23.1585 -2.61182 21.3192 -2.61182C19.4798 -2.61182 17.7505 -1.89379 16.4497 -0.589948Z" fill="#70C16B"></path><path d="M21.3192 9.46315C22.679 9.46315 23.9834 8.9365 24.9687 7.94894C25.9539 6.96138 26.4794 5.65388 26.4794 4.29088C26.4794 2.92787 25.9539 1.62037 24.9687 0.632812L17.6696 7.94894C18.6549 8.9365 19.9593 9.46315 21.3192 9.46315Z" fill="#70C16B"></path><path d="M17.6697 0.632863C16.6844 1.62042 16.159 2.92792 16.159 4.29093C16.159 5.65393 16.6844 6.96143 17.6697 7.94899L24.9687 0.632863C23.9835 -0.354697 22.679 -0.881348 21.3192 -0.881348C19.9594 -0.881348 18.6549 -0.354697 17.6697 0.632863Z" fill="#0B0AA3"></path><path d="M23.7488 6.72607C25.0883 5.38351 25.0883 3.19802 23.7488 1.85547L18.8896 6.72607C20.229 8.06862 22.4094 8.06862 23.7488 6.72607Z" fill="#0B0AA3"></path><path d="M18.8895 1.85604C17.5501 3.19859 17.5501 5.38408 18.8895 6.72664L23.7488 1.85604C22.4094 0.513482 20.229 0.513482 18.8895 1.85604Z" fill="#70C16B"></path><path d="M45.6675 -0.590248L40.798 -5.47119L31.0589 4.29069L35.9284 9.17164L45.6675 -0.590248Z" fill="#0B0AA3"></path><path d="M50.5369 4.29061L45.6674 -0.590332L35.9282 9.17155L40.7978 14.0525L50.5369 4.29061Z" fill="#70C16B"></path><path d="M40.7979 11.1932C42.6372 11.1932 44.3665 10.4752 45.6673 9.17132C46.9681 7.86748 47.6844 6.13413 47.6844 4.29049C47.6844 2.44685 46.9681 0.71351 45.6673 -0.590332L35.9284 9.17132C37.2292 10.4752 38.9585 11.1932 40.7979 11.1932Z" fill="#0B0AA3"></path><path d="M35.9284 -0.589948C34.6276 0.713895 33.9112 2.44724 33.9112 4.29088C33.9112 6.13452 34.6276 7.86786 35.9284 9.1717L45.6672 -0.589947C44.3664 -1.89379 42.6371 -2.61182 40.7978 -2.61182C38.9585 -2.61182 37.2292 -1.89379 35.9284 -0.589948Z" fill="#70C16B"></path><path d="M40.7978 9.46315C42.1576 9.46315 43.4621 8.9365 44.4473 7.94894C45.4326 6.96138 45.958 5.65388 45.958 4.29088C45.958 2.92787 45.4326 1.62037 44.4473 0.632812L37.1483 7.94894C38.1335 8.9365 39.438 9.46315 40.7978 9.46315Z" fill="#70C16B"></path><path d="M37.1483 0.632863C36.1631 1.62042 35.6376 2.92792 35.6376 4.29093C35.6376 5.65393 36.1631 6.96143 37.1483 7.94899L44.4474 0.632863C43.4621 -0.354697 42.1577 -0.881348 40.7979 -0.881348C39.438 -0.881348 38.1336 -0.354697 37.1483 0.632863Z" fill="#0B0AA3"></path><path d="M43.2275 6.72607C44.5669 5.38351 44.5669 3.19802 43.2275 1.85547L38.3682 6.72607C39.7077 8.06862 41.8881 8.06862 43.2275 6.72607Z" fill="#0B0AA3"></path><path d="M38.3682 1.85604C37.0288 3.19859 37.0288 5.38408 38.3682 6.72664L43.2274 1.85604C41.888 0.513482 39.7076 0.513482 38.3682 1.85604Z" fill="#70C16B"></path><path d="M1.84076 23.8146L6.7102 18.9338L1.84076 14.0522L1.84076 23.8146Z" fill="#0B0AA3"></path><path d="M1.84071 23.8149L1.84071 33.5766L11.5803 23.8149L6.71015 18.9341L1.84071 23.8149Z" fill="#70C16B"></path><path d="M1.8407 23.8149L1.8407 30.7176C3.68004 30.7176 5.40934 29.9996 6.71014 28.6957C8.01094 27.3919 8.72729 25.6585 8.72729 23.8149C8.72729 21.9713 8.01094 20.2379 6.71014 18.9341L1.8407 23.8149Z" fill="#0B0AA3"></path><path d="M1.84076 23.8148L6.7102 18.934C5.4094 17.6301 3.6801 16.9121 1.84076 16.9121L1.84076 23.8148Z" fill="#70C16B"></path><path d="M1.84077 23.8148L1.84077 28.9871C3.2006 28.9871 4.50504 28.4604 5.4903 27.4729C6.47556 26.4853 7.00098 25.1778 7.00098 23.8148C7.00098 22.4518 6.47556 21.1443 5.4903 20.1567L1.84077 23.8148Z" fill="#70C16B"></path><path d="M1.8407 23.8149L5.49023 20.1568C4.50498 19.1692 3.20053 18.6426 1.8407 18.6426L1.8407 23.8149Z" fill="#0B0AA3"></path><path d="M1.84072 23.8152L1.84072 27.2578C2.72031 27.2578 3.60062 26.9218 4.27033 26.2505C5.60976 24.9079 5.60976 22.7224 4.27033 21.3799L1.84072 23.8152Z" fill="#0B0AA3"></path><path d="M1.84065 23.8147L4.27026 21.3794C3.60055 20.7081 2.72024 20.3721 1.84065 20.3721L1.84065 23.8147Z" fill="#70C16B"></path><path d="M45.6677 18.9337L40.7981 14.0527L31.059 23.8146L35.9285 28.6956L45.6677 18.9337Z" fill="#0B0AA3"></path><path d="M50.537 23.8145L45.6675 18.9336L35.9284 28.6955L40.7979 33.5764L50.537 23.8145Z" fill="#70C16B"></path><path d="M40.7979 30.7171C42.6372 30.7171 44.3665 29.9991 45.6673 28.6952C46.9681 27.3914 47.6844 25.6581 47.6844 23.8144C47.6844 21.9708 46.9681 20.2374 45.6673 18.9336L35.9284 28.6952C37.2292 29.9991 38.9585 30.7171 40.7979 30.7171Z" fill="#0B0AA3"></path><path d="M35.9284 18.9335C34.6276 20.2373 33.9112 21.9707 33.9112 23.8143C33.9112 25.658 34.6276 27.3913 35.9284 28.6951L45.6672 18.9335C44.3664 17.6296 42.6371 16.9116 40.7978 16.9116C38.9585 16.9116 37.2292 17.6296 35.9284 18.9335Z" fill="#70C16B"></path><path d="M40.7978 28.9866C42.1576 28.9866 43.4621 28.4599 44.4473 27.4724C45.4326 26.4848 45.958 25.1773 45.958 23.8143C45.958 22.4513 45.4326 21.1438 44.4473 20.1562L37.1483 27.4724C38.1335 28.4599 39.438 28.9866 40.7978 28.9866Z" fill="#70C16B"></path><path d="M37.1483 20.1563C36.1631 21.1439 35.6376 22.4514 35.6376 23.8144C35.6376 25.1774 36.1631 26.4849 37.1483 27.4724L44.4474 20.1563C43.4621 19.1687 42.1577 18.6421 40.7979 18.6421C39.438 18.6421 38.1336 19.1687 37.1483 20.1563Z" fill="#0B0AA3"></path><path d="M43.2275 26.25C44.5669 24.9074 44.5669 22.722 43.2275 21.3794L38.3682 26.25C39.7077 27.5925 41.8881 27.5926 43.2275 26.25Z" fill="#0B0AA3"></path><path d="M38.3682 21.379C37.0288 22.7215 37.0288 24.907 38.3682 26.2496L43.2274 21.379C41.888 20.0364 39.7076 20.0364 38.3682 21.379Z" fill="#70C16B"></path><path d="M16.4501 9.17098L11.5806 4.29004L1.84145 14.0519L6.71101 18.9329L16.4501 9.17098Z" fill="#0B0AA3"></path><path d="M21.3199 14.0533L16.4503 9.17236L6.7112 18.9342L11.5808 23.8152L21.3199 14.0533Z" fill="#70C16B"></path><path d="M11.5806 20.9559C13.4199 20.9559 15.1492 20.2379 16.45 18.934C17.7508 17.6302 18.4672 15.8968 18.4672 14.0532C18.4672 12.2095 17.7508 10.4762 16.45 9.17236L6.71113 18.934C8.01193 20.2379 9.74123 20.9559 11.5806 20.9559Z" fill="#0B0AA3"></path><path d="M6.71058 9.17177C5.40978 10.4756 4.69343 12.209 4.69343 14.0526C4.69343 15.8962 5.40978 17.6296 6.71058 18.9334L16.4495 9.17177C15.1487 7.86793 13.4194 7.1499 11.58 7.1499C9.74068 7.1499 8.01138 7.86793 6.71058 9.17177Z" fill="#70C16B"></path><path d="M11.5805 19.2258C12.9403 19.2258 14.2448 18.6992 15.23 17.7116C16.2153 16.7241 16.7407 15.4166 16.7407 14.0536C16.7407 12.6906 16.2153 11.3831 15.23 10.3955L7.93098 17.7116C8.91624 18.6992 10.2207 19.2258 11.5805 19.2258Z" fill="#70C16B"></path><path d="M7.93031 10.3946C6.94505 11.3821 6.41963 12.6896 6.41963 14.0526C6.41963 15.4157 6.94505 16.7231 7.93031 17.7107L15.2294 10.3946C14.2441 9.40702 12.9397 8.88037 11.5798 8.88037C10.22 8.88037 8.91557 9.40702 7.93031 10.3946Z" fill="#0B0AA3"></path><path d="M14.0102 16.4883C15.3496 15.1457 15.3496 12.9602 14.0102 11.6177L9.15096 16.4883C10.4904 17.8308 12.6708 17.8308 14.0102 16.4883Z" fill="#0B0AA3"></path><path d="M9.15089 11.6173C7.81147 12.9598 7.81147 15.1453 9.15089 16.4879L14.0101 11.6173C12.6707 10.2747 10.4903 10.2747 9.15089 11.6173Z" fill="#70C16B"></path><path d="M35.9278 9.17147L31.0582 4.29053L21.3191 14.0524L26.1887 18.9334L35.9278 9.17147Z" fill="#0B0AA3"></path><path d="M40.7984 14.0528L35.9288 9.17188L26.1897 18.9338L31.0593 23.8147L40.7984 14.0528Z" fill="#70C16B"></path><path d="M31.0588 20.9559C32.8982 20.9559 34.6275 20.2379 35.9283 18.934C37.2291 17.6302 37.9454 15.8968 37.9454 14.0532C37.9454 12.2095 37.2291 10.4762 35.9283 9.17236L26.1894 18.934C27.4902 20.2379 29.2195 20.9559 31.0588 20.9559Z" fill="#0B0AA3"></path><path d="M26.1887 9.17128C24.8879 10.4751 24.1716 12.2085 24.1716 14.0521C24.1716 15.8957 24.8879 17.6291 26.1887 18.9329L35.9276 9.17128C34.6268 7.86744 32.8975 7.14941 31.0582 7.14941C29.2188 7.14941 27.4895 7.86744 26.1887 9.17128Z" fill="#70C16B"></path><path d="M31.0589 19.2254C32.4187 19.2254 33.7232 18.6987 34.7084 17.7111C35.6937 16.7236 36.2191 15.4161 36.2191 14.0531C36.2191 12.6901 35.6937 11.3826 34.7084 10.395L27.4094 17.7111C28.3946 18.6987 29.6991 19.2254 31.0589 19.2254Z" fill="#70C16B"></path><path d="M27.4086 10.3941C26.4233 11.3817 25.8979 12.6891 25.8979 14.0522C25.8979 15.4152 26.4233 16.7227 27.4086 17.7102L34.7076 10.3941C33.7224 9.40653 32.4179 8.87988 31.0581 8.87988C29.6983 8.87988 28.3938 9.40653 27.4086 10.3941Z" fill="#0B0AA3"></path><path d="M33.4885 16.4873C34.8279 15.1447 34.8279 12.9593 33.4885 11.6167L28.6292 16.4873C29.9687 17.8299 32.149 17.8299 33.4885 16.4873Z" fill="#0B0AA3"></path><path d="M28.6293 11.6173C27.2899 12.9598 27.2899 15.1453 28.6293 16.4879L33.4885 11.6173C32.1491 10.2747 29.9687 10.2747 28.6293 11.6173Z" fill="#70C16B"></path><path d="M16.45 28.6949L11.5804 23.814L1.84133 33.5758L6.71089 38.4568L16.45 28.6949Z" fill="#0B0AA3"></path><path d="M21.3194 33.5758L16.4498 28.6948L6.71071 38.4567L11.5803 43.3377L21.3194 33.5758Z" fill="#70C16B"></path><path d="M11.5803 40.4793C13.4197 40.4793 15.149 39.7613 16.4498 38.4575C17.7506 37.1536 18.4669 35.4203 18.4669 33.5766C18.4669 31.733 17.7506 29.9996 16.4498 28.6958L6.71088 38.4575C8.01168 39.7613 9.74098 40.4793 11.5803 40.4793Z" fill="#0B0AA3"></path><path d="M6.71021 28.6952C5.40941 29.9991 4.69306 31.7324 4.69306 33.576C4.69306 35.4197 5.40941 37.153 6.71021 38.4569L16.4491 28.6952C15.1483 27.3914 13.419 26.6733 11.5797 26.6733C9.74031 26.6733 8.01101 27.3914 6.71021 28.6952Z" fill="#70C16B"></path><path d="M11.5804 38.7493C12.9402 38.7493 14.2447 38.2226 15.2299 37.2351C16.2152 36.2475 16.7406 34.94 16.7406 33.577C16.7406 32.214 16.2152 30.9065 15.2299 29.9189L7.93086 37.2351C8.91612 38.2226 10.2206 38.7493 11.5804 38.7493Z" fill="#70C16B"></path><path d="M7.93007 29.918C6.94481 30.9056 6.41939 32.2131 6.41939 33.5761C6.41939 34.9391 6.94481 36.2466 7.93007 37.2341L15.2291 29.918C14.2439 28.9305 12.9394 28.4038 11.5796 28.4038C10.2198 28.4038 8.91532 28.9305 7.93007 29.918Z" fill="#0B0AA3"></path><path d="M14.01 36.0112C15.3494 34.6687 15.3494 32.4832 14.01 31.1406L9.15072 36.0112C10.4901 37.3538 12.6705 37.3538 14.01 36.0112Z" fill="#0B0AA3"></path><path d="M9.15077 31.1412C7.81135 32.4837 7.81135 34.6692 9.15077 36.0118L14.01 31.1412C12.6706 29.7986 10.4902 29.7986 9.15077 31.1412Z" fill="#70C16B"></path><path d="M35.928 28.6949L31.0585 23.814L21.3194 33.5758L26.1889 38.4568L35.928 28.6949Z" fill="#0B0AA3"></path><path d="M40.7974 33.5767L35.9279 28.6958L26.1887 38.4577L31.0583 43.3386L40.7974 33.5767Z" fill="#70C16B"></path><path d="M31.059 40.4793C32.8983 40.4793 34.6276 39.7613 35.9284 38.4575C37.2292 37.1536 37.9456 35.4203 37.9456 33.5766C37.9456 31.733 37.2292 29.9996 35.9284 28.6958L26.1895 38.4575C27.4903 39.7613 29.2196 40.4793 31.059 40.4793Z" fill="#0B0AA3"></path><path d="M26.1887 28.6957C24.8879 29.9995 24.1716 31.7329 24.1716 33.5765C24.1716 35.4202 24.8879 37.1535 26.1887 38.4573L35.9276 28.6957C34.6268 27.3919 32.8975 26.6738 31.0582 26.6738C29.2188 26.6738 27.4895 27.3919 26.1887 28.6957Z" fill="#70C16B"></path><path d="M31.0589 38.7493C32.4187 38.7493 33.7232 38.2226 34.7084 37.2351C35.6937 36.2475 36.2191 34.94 36.2191 33.577C36.2191 32.214 35.6937 30.9065 34.7084 29.9189L27.4094 37.2351C28.3946 38.2226 29.6991 38.7493 31.0589 38.7493Z" fill="#70C16B"></path><path d="M27.4087 29.9185C26.4234 30.9061 25.898 32.2136 25.898 33.5766C25.898 34.9396 26.4234 36.2471 27.4087 37.2346L34.7078 29.9185C33.7225 28.9309 32.4181 28.4043 31.0582 28.4043C29.6984 28.4043 28.394 28.9309 27.4087 29.9185Z" fill="#0B0AA3"></path><path d="M33.4885 36.0117C34.8279 34.6692 34.8279 32.4837 33.4885 31.1411L28.6292 36.0117C29.9687 37.3543 32.149 37.3543 33.4885 36.0117Z" fill="#0B0AA3"></path><path d="M28.6293 31.1412C27.2899 32.4837 27.2899 34.6692 28.6293 36.0118L33.4885 31.1412C32.1491 29.7986 29.9687 29.7986 28.6293 31.1412Z" fill="#70C16B"></path><path d="M26.2289 18.9889L21.3594 14.1079L11.6203 23.8698L16.4898 28.7507L26.2289 18.9889Z" fill="#0B0AA3"></path><path d="M31.0982 23.8707L26.2286 18.9897L16.4895 28.7516L21.3591 33.6326L31.0982 23.8707Z" fill="#70C16B"></path><path d="M21.3597 30.7733C23.1991 30.7733 24.9284 30.0552 26.2292 28.7514C27.53 27.4476 28.2463 25.7142 28.2463 23.8706C28.2463 22.0269 27.53 20.2936 26.2292 18.9897L16.4903 28.7514C17.7911 30.0552 19.5204 30.7733 21.3597 30.7733Z" fill="#0B0AA3"></path><path d="M16.4895 18.9896C15.1887 20.2935 14.4724 22.0268 14.4724 23.8705C14.4724 25.7141 15.1887 27.4475 16.4895 28.7513L26.2284 18.9896C24.9276 17.6858 23.1983 16.9678 21.359 16.9678C19.5196 16.9678 17.7903 17.6858 16.4895 18.9896Z" fill="#70C16B"></path><path d="M21.3597 29.0437C22.7195 29.0437 24.024 28.5171 25.0092 27.5295C25.9945 26.5419 26.5199 25.2344 26.5199 23.8714C26.5199 22.5084 25.9945 21.2009 25.0092 20.2134L17.7102 27.5295C18.6954 28.5171 19.9999 29.0437 21.3597 29.0437Z" fill="#70C16B"></path><path d="M17.7095 20.2125C16.7242 21.2 16.1988 22.5075 16.1988 23.8705C16.1988 25.2335 16.7242 26.541 17.7095 27.5286L25.0085 20.2125C24.0233 19.2249 22.7188 18.6982 21.359 18.6982C19.9992 18.6982 18.6947 19.2249 17.7095 20.2125Z" fill="#0B0AA3"></path><path d="M23.7893 26.3057C25.1287 24.9631 25.1287 22.7776 23.7893 21.4351L18.93 26.3057C20.2694 27.6482 22.4498 27.6482 23.7893 26.3057Z" fill="#0B0AA3"></path><path d="M18.9301 21.4351C17.5906 22.7777 17.5906 24.9632 18.9301 26.3057L23.7893 21.4351C22.4499 20.0926 20.2695 20.0926 18.9301 21.4351Z" fill="#70C16B"></path><path d="M2.0595 -5.4716L-2.81006 -10.3525L-12.5492 -0.590655L-7.67962 4.29029L2.0595 -5.4716Z" fill="#70C16B"></path><path d="M2.05896 43.339L2.05896 33.5767L-7.67992 43.339L2.05896 43.339Z" fill="#0B0AA3"></path><path d="M-4.82764 43.3392L2.05896 43.3392L2.05896 36.4365C0.21962 36.4365 -1.50968 37.1545 -2.81048 38.4584C-4.11128 39.7622 -4.82764 41.4956 -4.82764 43.3392Z" fill="#70C16B"></path><path d="M-3.10125 43.3393L2.05896 43.3393L2.05896 38.167C0.699131 38.167 -0.605314 38.6936 -1.59057 39.6812C-2.57583 40.6688 -3.10125 41.9763 -3.10125 43.3393Z" fill="#0B0AA3"></path><path d="M-1.37559 43.3391L2.05896 43.3391L2.05896 39.8965C1.17937 39.8965 0.299053 40.2325 -0.37066 40.9038C-1.04037 41.575 -1.37559 42.4574 -1.37559 43.3391Z" fill="#70C16B"></path><path d="M2.05896 -5.47119L-7.67992 4.29046L-2.81048 9.17129L2.05896 4.29046L2.05896 -5.47119Z" fill="#0B0AA3"></path><path d="M2.05908 4.29053L-2.81036 9.17135L2.05908 14.0522L2.05908 4.29053Z" fill="#70C16B"></path><path d="M2.05908 4.29053L-2.81036 9.17135C-1.50956 10.4752 0.219742 11.1932 2.05908 11.1932L2.05908 4.29053Z" fill="#0B0AA3"></path><path d="M2.05908 -2.61182C0.219742 -2.61182 -1.50956 -1.89379 -2.81036 -0.589948C-4.11116 0.713895 -4.82751 2.44724 -4.82751 4.29088C-4.82751 6.13452 -4.11116 7.86786 -2.81036 9.1717L2.05908 4.29088L2.05908 -2.61182Z" fill="#70C16B"></path><path d="M2.05908 4.29053L-1.59045 7.94859C-0.605193 8.93615 0.699252 9.4628 2.05908 9.4628L2.05908 4.29053Z" fill="#70C16B"></path><path d="M2.05908 -0.881348C0.699253 -0.881348 -0.605192 -0.354697 -1.59045 0.632863C-2.57571 1.62042 -3.10113 2.92792 -3.10113 4.29093C-3.10113 5.65393 -2.57571 6.96143 -1.59045 7.94899L2.05908 4.29093L2.05908 -0.881348Z" fill="#0B0AA3"></path><path d="M2.05908 4.29053L-0.370538 6.72583C0.299174 7.3971 1.17949 7.73311 2.05908 7.73311L2.05908 4.29053Z" fill="#0B0AA3"></path><path d="M2.05908 0.848145C1.17949 0.848144 0.299174 1.18415 -0.370538 1.85543C-1.70996 3.19798 -1.70996 5.38347 -0.370538 6.72603L2.05908 4.29073L2.05908 0.848145Z" fill="#70C16B"></path><path d="M2.05884 14.0522L-7.68005 23.8146L-2.8106 28.6955L2.05884 23.8146L2.05884 14.0522Z" fill="#0B0AA3"></path><path d="M2.05896 23.8145L-2.81048 28.6953L2.05896 33.5761L2.05896 23.8145Z" fill="#70C16B"></path><path d="M2.05896 23.8145L-2.81048 28.6953C-1.50968 29.9991 0.219619 30.7171 2.05896 30.7171L2.05896 23.8145Z" fill="#0B0AA3"></path><path d="M2.05896 16.9121C0.21962 16.9121 -1.50968 17.6301 -2.81048 18.934C-4.11128 20.2378 -4.82764 21.9712 -4.82764 23.8148C-4.82764 25.6584 -4.11128 27.3918 -2.81048 28.6956L2.05896 23.8148L2.05896 16.9121Z" fill="#70C16B"></path><path d="M2.05896 23.8145L-1.59057 27.4725C-0.605315 28.4601 0.69913 28.9867 2.05896 28.9867L2.05896 23.8145Z" fill="#70C16B"></path><path d="M2.05896 18.6416C0.699131 18.6416 -0.605314 19.1682 -1.59057 20.1558C-2.57583 21.1434 -3.10125 22.4509 -3.10125 23.8139C-3.10125 25.1769 -2.57583 26.4844 -1.59057 27.4719L2.05896 23.8146L2.05896 18.6423L2.05896 18.6416Z" fill="#0B0AA3"></path><path d="M2.05896 23.8145L-0.37066 26.2498C0.299052 26.921 1.17937 27.257 2.05896 27.257L2.05896 23.8145Z" fill="#0B0AA3"></path><path d="M2.05896 20.3721C1.17937 20.3721 0.299052 20.7081 -0.37066 21.3794C-1.71008 22.7219 -1.71008 24.9074 -0.37066 26.25L2.05896 23.8147L2.05896 20.3721Z" fill="#70C16B"></path><path d="M2.05901 14.0528L-2.81055 9.17188L-12.5497 18.9338L-7.68011 23.8147L2.05901 14.0528Z" fill="#70C16B"></path><path d="M2.05877 33.5763L-2.81079 28.6953L-12.5499 38.4572L-7.68035 43.3381L2.05877 33.5763Z" fill="#70C16B"></path></g><path d="M39.1152 10.8108C42.1055 10.8108 44.5297 8.39073 44.5297 5.4054C44.5297 2.42008 42.1055 0 39.1152 0C36.1248 0 33.7007 2.42008 33.7007 5.4054C33.7007 8.39073 36.1248 10.8108 39.1152 10.8108Z" fill="#70C16B"></path></g><defs><clipPath id="clip0_2349_28999"><rect width="43.5556" height="40" fill="white" transform="translate(0.974121)"></rect></clipPath></defs></svg>