<svg xmlns="http://www.w3.org/2000/svg" width="163" height="44" viewBox="0 0 163 44" fill="none"><g clip-path="url(#clip0_1182_38888)"><path d="M62.8497 7.84198C56.5085 6.20865 49.8897 10.5953 48.2697 17.4553C46.6497 24.3153 50.6765 31.4553 57.2028 33.1353C63.9142 34.862 69.6536 31.1287 71.7828 24.922C71.7365 24.922 71.6902 24.922 71.5977 24.922C69.5611 24.922 67.5245 24.922 65.5342 24.922C65.3954 24.922 65.2565 25.0153 65.2102 25.1553C64.6548 26.042 63.9142 26.6953 62.9885 27.0687C61.8314 27.582 60.6279 27.6753 59.3782 27.5353C57.2954 27.2553 55.7217 26.2753 54.7034 24.3153C54.4719 23.8486 54.2868 23.3353 54.1017 22.7287C60.2577 22.7287 66.3211 22.7287 72.3845 22.7287C73.2176 16.0087 69.8388 9.61531 62.8497 7.84198ZM54.2868 17.502C55.0274 15.4487 57.0639 13.3953 60.1651 13.442C63.3125 13.4886 65.3028 15.5887 65.8582 17.502C61.9702 17.502 58.1285 17.502 54.2868 17.502Z" fill="white"></path><path d="M97.101 16.8009C96.3604 12.6475 92.7039 9.42751 88.5382 9.38084C85.8999 9.33417 83.6319 10.2208 81.7341 12.0408C81.6879 12.0875 81.5953 12.1342 81.4564 12.2742C81.4564 11.5275 81.4564 10.8742 81.4564 10.2209C79.3273 10.2209 77.1982 10.2209 75.1153 10.2209C75.1153 17.9675 75.1153 25.7142 75.1153 33.4142C77.2444 33.4142 79.3273 33.4142 81.4564 33.4142C81.4564 33.2742 81.4564 33.1342 81.4564 32.9942C81.4564 28.6075 81.4564 24.1742 81.4564 19.7875C81.4564 19.6009 81.4564 19.4608 81.4564 19.2742C81.5953 16.4275 84.5113 14.2342 87.2884 14.9808C89.4639 15.5408 90.8987 17.4542 90.945 19.7408C90.945 24.1742 90.945 28.6075 90.945 33.0408C90.945 33.1808 90.945 33.3208 90.945 33.5075C93.0742 33.5075 95.157 33.5075 97.2862 33.5075C97.2862 33.3675 97.2862 33.2742 97.2862 33.1808C97.2862 28.3275 97.2862 23.5209 97.2862 18.6675C97.2399 18.0142 97.1936 17.4075 97.101 16.8009Z" fill="white"></path><path d="M1.42879 33.5083C3.6505 33.5083 5.82594 33.5083 8.00136 33.5083C8.00136 22.7284 8.00136 11.9484 8.00136 1.21503C5.82594 1.21503 3.6505 1.21503 1.42879 1.21503C1.42879 11.995 1.42879 22.7284 1.42879 33.5083Z" fill="white"></path><path d="M99.8321 33.4611C102.008 33.4611 104.183 33.4611 106.405 33.4611C106.405 25.9945 106.405 18.5745 106.405 11.1545C104.183 11.1545 102.008 11.1545 99.8321 11.1545C99.8321 18.5745 99.8321 25.9945 99.8321 33.4611Z" fill="white"></path><path d="M10.5938 33.4609C12.7693 33.4609 14.9447 33.4609 17.1664 33.4609C17.1664 25.9943 17.1664 18.5743 17.1664 11.1076C14.991 11.1076 12.8155 11.1076 10.5938 11.1076C10.5938 18.5743 10.5938 25.9943 10.5938 33.4609Z" fill="white"></path><path d="M45.4002 20.5343C45.4002 13.3943 39.6608 7.6076 32.579 7.6076C25.4973 7.6076 19.7579 13.3943 19.7579 20.5343C19.7579 26.2276 23.4145 31.0809 28.5059 32.8076C24.7105 34.2543 22.0259 37.8943 22.0259 42.2343V43.121H28.043V42.2343C28.043 40.0409 29.8019 38.221 32.0236 38.221C34.199 38.221 36.0042 39.9943 36.0042 42.2343V43.121H42.0213V42.2343C42.0213 38.1276 39.5682 34.5809 36.0505 33.0409C41.4196 31.5009 45.4002 26.5076 45.4002 20.5343ZM32.579 27.3943C28.8299 27.3943 25.775 24.3143 25.775 20.5343C25.775 16.7543 28.8299 13.6743 32.579 13.6743C36.3282 13.6743 39.383 16.7543 39.383 20.5343C39.383 24.3143 36.3282 27.3943 32.579 27.3943Z" fill="white"></path><path d="M43.8728 11.201C46.1735 11.201 48.0385 9.32056 48.0385 7.00096C48.0385 4.68137 46.1735 2.80096 43.8728 2.80096C41.5722 2.80096 39.7071 4.68137 39.7071 7.00096C39.7071 9.32056 41.5722 11.201 43.8728 11.201Z" fill="#02D2FE"></path><path d="M121.818 7.56073C114.737 7.56073 108.997 13.3474 108.997 20.4874C108.997 27.6274 114.737 33.414 121.818 33.414C128.9 33.414 134.639 27.6274 134.639 20.4874C134.686 13.3474 128.946 7.56073 121.818 7.56073ZM121.818 27.3474C118.069 27.3474 115.014 24.2674 115.014 20.4874C115.014 16.7074 118.069 13.6274 121.818 13.6274C125.567 13.6274 128.622 16.7074 128.622 20.4874C128.669 24.2674 125.614 27.3474 121.818 27.3474Z" fill="white"></path><path d="M127.789 32.6219C125.614 33.4152 124.503 35.7952 125.29 37.9886C126.077 40.1819 128.437 41.3019 130.613 40.5085C132.788 39.7152 133.899 37.3352 133.112 35.1419C132.325 32.9485 129.918 31.8286 127.789 32.6219Z" fill="white"></path><path d="M103.119 9.56815C105.42 9.56815 107.285 7.68775 107.285 5.36815C107.285 3.04856 105.42 1.16815 103.119 1.16815C100.818 1.16815 98.9532 3.04856 98.9532 5.36815C98.9532 7.68775 100.818 9.56815 103.119 9.56815Z" fill="white"></path><path d="M10.9172 2.42815C9.29722 4.06149 9.29722 6.72148 10.9172 8.35481C12.5372 9.98814 15.1755 9.98814 16.7955 8.35481C18.4155 6.72148 18.4155 4.06149 16.7955 2.42815C15.1755 0.748152 12.5372 0.748152 10.9172 2.42815Z" fill="white"></path><path d="M150 7.64668C142.918 7.64668 137.179 13.4334 137.179 20.5734C137.179 27.7134 142.918 33.5 150 33.5C157.082 33.5 162.821 27.7134 162.821 20.5734C162.821 13.4334 157.082 7.64668 150 7.64668ZM150 27.4333C146.251 27.4333 143.196 24.3534 143.196 20.5734C143.196 16.7934 146.251 13.7134 150 13.7134C153.749 13.7134 156.804 16.7934 156.804 20.5734C156.804 24.3534 153.749 27.4333 150 27.4333Z" fill="white"></path></g><defs><clipPath id="clip0_1182_38888"><rect width="162" height="43" fill="white" transform="translate(0.850586 0.5)"></rect></clipPath></defs></svg>