<svg xmlns="http://www.w3.org/2000/svg" width="45" height="40" viewBox="0 0 45 40" fill="none"><g clip-path="url(#clip0_2349_28055)"><mask id="mask0_2349_28055" style="mask-type:alpha" maskUnits="userSpaceOnUse" x="-39" y="0" width="80" height="80"><path d="M40.2677 39.9168C40.2677 61.7807 22.5435 79.5049 0.679533 79.5049C-21.1844 79.5049 -38.9086 61.7807 -38.9086 39.9168C-38.9086 18.0528 -21.1844 0.328614 0.679535 0.328614C22.5435 0.328615 40.2677 18.0528 40.2677 39.9168ZM-15.7851 39.9168C-15.7851 49.0099 -8.41363 56.3814 0.679533 56.3814C9.77269 56.3814 17.1442 49.0099 17.1442 39.9168C17.1442 30.8236 9.77269 23.4522 0.679534 23.4522C-8.41363 23.4522 -15.7851 30.8236 -15.7851 39.9168Z" fill="#D9D9D9"></path></mask><g mask="url(#mask0_2349_28055)"><path d="M21.0002 -5.4716L16.1306 -10.3525L6.3915 -0.590655L11.2611 4.29029L21.0002 -5.4716Z" fill="#FDBA1E"></path><path d="M11.261 1.43098C13.1003 1.43098 14.8296 0.712955 16.1304 -0.590887C17.4312 -1.89473 18.1476 -3.62807 18.1476 -5.47171C18.1476 -7.31535 17.4312 -9.0487 16.1304 -10.3525L6.39155 -0.590888C7.69235 0.712955 9.42165 1.43098 11.261 1.43098Z" fill="#0B0AA3"></path><path d="M40.4788 -5.4716L35.6093 -10.3525L25.8701 -0.590655L30.7397 4.29029L40.4788 -5.4716Z" fill="#FDBA1E"></path><path d="M30.7395 1.43147C32.5788 1.43147 34.3081 0.713444 35.6089 -0.590399C36.9097 -1.89424 37.6261 -3.62758 37.6261 -5.47123C37.6261 -7.31487 36.9097 -9.04821 35.6089 -10.3521L25.8701 -0.5904C27.1709 0.713443 28.9002 1.43147 30.7395 1.43147Z" fill="#0B0AA3"></path><path d="M1.52137 33.5762L1.52136 43.3386L6.39081 38.4577L1.52137 33.5762Z" fill="#0B0AA3"></path><path d="M6.39082 38.458L1.52137 43.3388L11.261 43.3388L6.39082 38.458Z" fill="#FDBA1E"></path><path d="M6.39081 38.458L1.52136 43.3388L8.40796 43.3388C8.40796 41.4952 7.69161 39.7619 6.39081 38.458Z" fill="#0B0AA3"></path><path d="M1.52137 36.436L1.52137 43.3387L6.39081 38.4579C5.09001 37.1541 3.36071 36.436 1.52137 36.436Z" fill="#FDBA1E"></path><path d="M5.1709 39.6807L1.52137 43.3387L6.68158 43.3387C6.68158 41.9757 6.15616 40.6682 5.1709 39.6807Z" fill="#FDBA1E"></path><path d="M1.52137 38.1655L1.52137 43.3378L5.1709 39.6797C4.18564 38.6922 2.8812 38.1655 1.52137 38.1655Z" fill="#0B0AA3"></path><path d="M1.52137 39.896L1.52137 43.3386L3.95099 40.9033C3.28128 40.232 2.40096 39.896 1.52137 39.896Z" fill="#FDBA1E"></path><path d="M11.2609 43.3386L20.9998 43.3386L25.8693 38.4577L20.9998 33.5762L11.2609 43.3386Z" fill="#0B0AA3"></path><path d="M25.8692 38.458L20.9998 43.3388L30.7394 43.3388L25.8692 38.458Z" fill="#FDBA1E"></path><path d="M25.8692 38.458L20.9998 43.3388L27.8864 43.3388C27.8864 41.4952 27.17 39.7619 25.8692 38.458Z" fill="#0B0AA3"></path><path d="M16.1304 38.4579C14.8296 39.7617 14.1132 41.4951 14.1132 43.3387L20.9998 43.3387L25.8693 38.4579C24.5685 37.1541 22.8392 36.436 20.9998 36.436C19.1605 36.436 17.4312 37.1541 16.1304 38.4579Z" fill="#FDBA1E"></path><path d="M24.6492 39.6807L20.9997 43.3387L26.1599 43.3387C26.1599 41.9757 25.6345 40.6682 24.6492 39.6807Z" fill="#FDBA1E"></path><path d="M17.3502 39.6807C16.365 40.6683 15.8396 41.9758 15.8396 43.3388L21.0005 43.3388L24.65 39.6807C23.6648 38.6932 22.3603 38.1665 21.0005 38.1665C19.6407 38.1665 18.3362 38.6932 17.351 39.6807L17.3502 39.6807Z" fill="#0B0AA3"></path><path d="M18.5702 40.9034C17.9005 41.5747 17.5653 42.4571 17.5653 43.3387L20.9998 43.3387L23.4294 40.9034C22.09 39.5608 19.9096 39.5608 18.5702 40.9034Z" fill="#FDBA1E"></path><path d="M30.7395 43.3386L40.4783 43.3386L45.3478 38.4577L40.4783 33.5762L30.7395 43.3386Z" fill="#0B0AA3"></path><path d="M35.6089 38.4579C34.3081 39.7617 33.5917 41.4951 33.5917 43.3387L40.4783 43.3387L45.3478 38.4579C44.047 37.1541 42.3177 36.436 40.4783 36.436C38.639 36.436 36.9097 37.1541 35.6089 38.4579Z" fill="#FDBA1E"></path><path d="M36.8287 39.6807C35.8435 40.6683 35.3181 41.9758 35.3181 43.3388L40.4783 43.3388L44.1278 39.6807C43.1426 38.6932 41.8381 38.1665 40.4783 38.1665C39.1184 38.1665 37.814 38.6932 36.8287 39.6807Z" fill="#0B0AA3"></path><path d="M38.0487 40.9034C37.379 41.5747 37.0438 42.4571 37.0438 43.3387L40.4783 43.3387L42.908 40.9034C41.5685 39.5608 39.3881 39.5608 38.0487 40.9034Z" fill="#FDBA1E"></path><path d="M1.52136 4.2907L6.39081 -0.590124L1.52137 -5.47168L1.52137 -5.47095L1.52136 4.2907Z" fill="#0B0AA3"></path><path d="M1.52137 4.29001L1.52137 14.0517L11.261 4.29001L6.39082 -0.590821L1.52137 4.29001Z" fill="#FDBA1E"></path><path d="M1.52136 4.29001L1.52136 11.1927C3.3607 11.1927 5.09 10.4747 6.39081 9.17083C7.69161 7.86699 8.40796 6.13365 8.40796 4.29001C8.40796 2.44637 7.69161 0.713022 6.39081 -0.59082L1.52136 4.29001Z" fill="#0B0AA3"></path><path d="M1.52137 4.29039L6.39081 -0.590436C5.09001 -1.89428 3.36071 -2.6123 1.52137 -2.61231L1.52137 4.29039Z" fill="#FDBA1E"></path><path d="M1.52143 4.2899L1.52143 9.46217C2.88126 9.46217 4.18571 8.93552 5.17096 7.94796C6.15622 6.9604 6.68164 5.65291 6.68164 4.2899C6.68164 2.92689 6.15622 1.6194 5.17096 0.631836L1.52143 4.2899Z" fill="#FDBA1E"></path><path d="M1.52137 4.28995L5.1709 0.631887C4.18564 -0.355673 2.8812 -0.882324 1.52137 -0.882324L1.52137 4.28995Z" fill="#0B0AA3"></path><path d="M1.52138 4.29028L1.52138 7.73286C2.40097 7.73286 3.28129 7.39686 3.951 6.72558C5.29042 5.38303 5.29042 3.19754 3.951 1.85498L1.52138 4.29028Z" fill="#0B0AA3"></path><path d="M1.52137 4.29073L3.95099 1.85543C3.28128 1.18415 2.40096 0.848144 1.52137 0.848144L1.52137 4.29073Z" fill="#FDBA1E"></path><path d="M25.8693 -0.590248L20.9998 -5.47119L11.2606 4.29069L16.1302 9.17164L25.8693 -0.590248Z" fill="#0B0AA3"></path><path d="M30.7386 4.29012L25.869 -0.59082L16.1299 9.17106L20.9995 14.052L30.7386 4.29012Z" fill="#FDBA1E"></path><path d="M20.9999 11.1932C22.8392 11.1932 24.5685 10.4752 25.8693 9.17132C27.1701 7.86748 27.8865 6.13413 27.8865 4.29049C27.8865 2.44685 27.1701 0.71351 25.8693 -0.590332L16.1304 9.17132C17.4312 10.4752 19.1605 11.1932 20.9999 11.1932Z" fill="#0B0AA3"></path><path d="M16.1303 -0.589948C14.8295 0.713895 14.1131 2.44724 14.1131 4.29088C14.1131 6.13452 14.8295 7.86786 16.1303 9.1717L25.8691 -0.589947C24.5683 -1.89379 22.839 -2.61182 20.9997 -2.61182C19.1604 -2.61182 17.4311 -1.89379 16.1303 -0.589948Z" fill="#FDBA1E"></path><path d="M20.9997 9.46315C22.3595 9.46315 23.664 8.9365 24.6492 7.94894C25.6345 6.96138 26.1599 5.65388 26.1599 4.29088C26.1599 2.92787 25.6345 1.62037 24.6492 0.632812L17.3502 7.94894C18.3354 8.9365 19.6399 9.46315 20.9997 9.46315Z" fill="#FDBA1E"></path><path d="M17.3502 0.632863C16.365 1.62042 15.8396 2.92792 15.8396 4.29093C15.8396 5.65393 16.365 6.96143 17.3502 7.94899L24.6493 0.632863C23.664 -0.354697 22.3596 -0.881348 20.9998 -0.881348C19.6399 -0.881348 18.3355 -0.354697 17.3502 0.632863Z" fill="#0B0AA3"></path><path d="M23.4294 6.72607C24.7688 5.38351 24.7688 3.19802 23.4294 1.85547L18.5702 6.72607C19.9096 8.06862 22.09 8.06862 23.4294 6.72607Z" fill="#0B0AA3"></path><path d="M18.5701 1.85604C17.2307 3.19859 17.2307 5.38408 18.5701 6.72664L23.4293 1.85604C22.0899 0.513482 19.9095 0.513482 18.5701 1.85604Z" fill="#FDBA1E"></path><path d="M45.3481 -0.590248L40.4785 -5.47119L30.7394 4.29069L35.609 9.17164L45.3481 -0.590248Z" fill="#0B0AA3"></path><path d="M50.2175 4.29061L45.3479 -0.590332L35.6088 9.17155L40.4783 14.0525L50.2175 4.29061Z" fill="#FDBA1E"></path><path d="M40.4784 11.1932C42.3177 11.1932 44.047 10.4752 45.3478 9.17132C46.6486 7.86748 47.365 6.13413 47.365 4.29049C47.365 2.44685 46.6486 0.71351 45.3478 -0.590332L35.609 9.17132C36.9098 10.4752 38.6391 11.1932 40.4784 11.1932Z" fill="#0B0AA3"></path><path d="M35.6089 -0.589948C34.3081 0.713895 33.5917 2.44724 33.5917 4.29088C33.5917 6.13452 34.3081 7.86786 35.6089 9.1717L45.3478 -0.589947C44.047 -1.89379 42.3177 -2.61182 40.4783 -2.61182C38.639 -2.61182 36.9097 -1.89379 35.6089 -0.589948Z" fill="#FDBA1E"></path><path d="M40.4783 9.46315C41.8382 9.46315 43.1426 8.9365 44.1279 7.94894C45.1131 6.96138 45.6385 5.65388 45.6385 4.29088C45.6385 2.92787 45.1131 1.62037 44.1279 0.632812L36.8288 7.94894C37.8141 8.9365 39.1185 9.46315 40.4783 9.46315Z" fill="#FDBA1E"></path><path d="M36.8289 0.632863C35.8436 1.62042 35.3182 2.92792 35.3182 4.29093C35.3182 5.65393 35.8436 6.96143 36.8289 7.94899L44.1279 0.632863C43.1427 -0.354697 41.8382 -0.881348 40.4784 -0.881348C39.1186 -0.881348 37.8141 -0.354697 36.8289 0.632863Z" fill="#0B0AA3"></path><path d="M42.908 6.72607C44.2475 5.38351 44.2475 3.19802 42.908 1.85547L38.0488 6.72607C39.3882 8.06862 41.5686 8.06862 42.908 6.72607Z" fill="#0B0AA3"></path><path d="M38.0487 1.85604C36.7093 3.19859 36.7093 5.38408 38.0487 6.72664L42.908 1.85604C41.5685 0.513482 39.3881 0.513482 38.0487 1.85604Z" fill="#FDBA1E"></path><path d="M1.52124 23.8146L6.39069 18.9338L1.52124 14.0522L1.52124 23.8146Z" fill="#0B0AA3"></path><path d="M1.52125 23.8149L1.52125 33.5766L11.2609 23.8149L6.39069 18.9341L1.52125 23.8149Z" fill="#FDBA1E"></path><path d="M1.52124 23.8149L1.52124 30.7176C3.36058 30.7176 5.08988 29.9996 6.39068 28.6957C7.69149 27.3919 8.40784 25.6585 8.40784 23.8149C8.40784 21.9713 7.69149 20.2379 6.39068 18.9341L1.52124 23.8149Z" fill="#0B0AA3"></path><path d="M1.52124 23.8148L6.39069 18.934C5.08988 17.6301 3.36058 16.9121 1.52124 16.9121L1.52124 23.8148Z" fill="#FDBA1E"></path><path d="M1.52125 23.8148L1.52125 28.9871C2.88108 28.9871 4.18552 28.4604 5.17078 27.4729C6.15604 26.4853 6.68146 25.1778 6.68146 23.8148C6.68146 22.4518 6.15604 21.1443 5.17078 20.1567L1.52125 23.8148Z" fill="#FDBA1E"></path><path d="M1.52124 23.8149L5.17078 20.1568C4.18552 19.1692 2.88107 18.6426 1.52124 18.6426L1.52124 23.8149Z" fill="#0B0AA3"></path><path d="M1.5212 23.8152L1.5212 27.2578C2.40079 27.2578 3.2811 26.9218 3.95081 26.2505C5.29024 24.9079 5.29024 22.7224 3.95081 21.3799L1.5212 23.8152Z" fill="#0B0AA3"></path><path d="M1.52125 23.8147L3.95087 21.3794C3.28115 20.7081 2.40084 20.3721 1.52125 20.3721L1.52125 23.8147Z" fill="#FDBA1E"></path><path d="M45.3482 18.9337L40.4786 14.0527L30.7395 23.8146L35.6091 28.6956L45.3482 18.9337Z" fill="#0B0AA3"></path><path d="M50.2176 23.8145L45.348 18.9336L35.6089 28.6955L40.4785 33.5764L50.2176 23.8145Z" fill="#FDBA1E"></path><path d="M40.4784 30.7171C42.3177 30.7171 44.047 29.9991 45.3478 28.6952C46.6486 27.3914 47.365 25.6581 47.365 23.8144C47.365 21.9708 46.6486 20.2374 45.3478 18.9336L35.609 28.6952C36.9098 29.9991 38.6391 30.7171 40.4784 30.7171Z" fill="#0B0AA3"></path><path d="M35.6089 18.9335C34.3081 20.2373 33.5917 21.9707 33.5917 23.8143C33.5917 25.658 34.3081 27.3913 35.6089 28.6951L45.3478 18.9335C44.047 17.6296 42.3177 16.9116 40.4783 16.9116C38.639 16.9116 36.9097 17.6296 35.6089 18.9335Z" fill="#FDBA1E"></path><path d="M40.4783 28.9866C41.8382 28.9866 43.1426 28.4599 44.1279 27.4724C45.1131 26.4848 45.6385 25.1773 45.6385 23.8143C45.6385 22.4513 45.1131 21.1438 44.1279 20.1562L36.8288 27.4724C37.8141 28.4599 39.1185 28.9866 40.4783 28.9866Z" fill="#FDBA1E"></path><path d="M36.8289 20.1563C35.8436 21.1439 35.3182 22.4514 35.3182 23.8144C35.3182 25.1774 35.8436 26.4849 36.8289 27.4724L44.1279 20.1563C43.1427 19.1687 41.8382 18.6421 40.4784 18.6421C39.1186 18.6421 37.8141 19.1687 36.8289 20.1563Z" fill="#0B0AA3"></path><path d="M42.908 26.25C44.2475 24.9074 44.2475 22.722 42.908 21.3794L38.0488 26.25C39.3882 27.5925 41.5686 27.5926 42.908 26.25Z" fill="#0B0AA3"></path><path d="M38.0487 21.379C36.7093 22.7215 36.7093 24.907 38.0487 26.2496L42.908 21.379C41.5685 20.0364 39.3881 20.0364 38.0487 21.379Z" fill="#FDBA1E"></path><path d="M16.1307 9.17098L11.2611 4.29004L1.52199 14.0519L6.39155 18.9329L16.1307 9.17098Z" fill="#0B0AA3"></path><path d="M21.0004 14.0533L16.1309 9.17236L6.39174 18.9342L11.2613 23.8152L21.0004 14.0533Z" fill="#FDBA1E"></path><path d="M11.2611 20.9559C13.1004 20.9559 14.8297 20.2379 16.1305 18.934C17.4313 17.6302 18.1477 15.8968 18.1477 14.0532C18.1477 12.2095 17.4313 10.4762 16.1305 9.17236L6.39167 18.934C7.69247 20.2379 9.42177 20.9559 11.2611 20.9559Z" fill="#0B0AA3"></path><path d="M6.39112 9.17177C5.09032 10.4756 4.37397 12.209 4.37397 14.0526C4.37397 15.8962 5.09032 17.6296 6.39112 18.9334L16.13 9.17177C14.8292 7.86793 13.0999 7.1499 11.2606 7.1499C9.42122 7.1499 7.69192 7.86793 6.39112 9.17177Z" fill="#FDBA1E"></path><path d="M11.2611 19.2258C12.6209 19.2258 13.9253 18.6992 14.9106 17.7116C15.8958 16.7241 16.4213 15.4166 16.4213 14.0536C16.4213 12.6906 15.8958 11.3831 14.9106 10.3955L7.61152 17.7116C8.59678 18.6992 9.90123 19.2258 11.2611 19.2258Z" fill="#FDBA1E"></path><path d="M7.61085 10.3946C6.6256 11.3821 6.10018 12.6896 6.10018 14.0526C6.10018 15.4157 6.6256 16.7231 7.61085 17.7107L14.9099 10.3946C13.9247 9.40702 12.6202 8.88037 11.2604 8.88037C9.90056 8.88037 8.59611 9.40702 7.61085 10.3946Z" fill="#0B0AA3"></path><path d="M13.6907 16.4883C15.0302 15.1457 15.0302 12.9602 13.6907 11.6177L8.83151 16.4883C10.1709 17.8308 12.3513 17.8308 13.6907 16.4883Z" fill="#0B0AA3"></path><path d="M8.83143 11.6173C7.49201 12.9598 7.49201 15.1453 8.83143 16.4879L13.6907 11.6173C12.3512 10.2747 10.1709 10.2747 8.83143 11.6173Z" fill="#FDBA1E"></path><path d="M35.6083 9.17147L30.7388 4.29053L20.9997 14.0524L25.8692 18.9334L35.6083 9.17147Z" fill="#0B0AA3"></path><path d="M40.4789 14.0528L35.6094 9.17188L25.8703 18.9338L30.7398 23.8147L40.4789 14.0528Z" fill="#FDBA1E"></path><path d="M30.7394 20.9559C32.5787 20.9559 34.308 20.2379 35.6088 18.934C36.9096 17.6302 37.626 15.8968 37.626 14.0532C37.626 12.2095 36.9096 10.4762 35.6088 9.17236L25.8699 18.934C27.1707 20.2379 28.9 20.9559 30.7394 20.9559Z" fill="#0B0AA3"></path><path d="M25.8693 9.17128C24.5685 10.4751 23.8521 12.2085 23.8521 14.0521C23.8521 15.8957 24.5685 17.6291 25.8693 18.9329L35.6082 9.17128C34.3074 7.86744 32.5781 7.14941 30.7387 7.14941C28.8994 7.14941 27.1701 7.86744 25.8693 9.17128Z" fill="#FDBA1E"></path><path d="M30.7394 19.2254C32.0993 19.2254 33.4037 18.6987 34.389 17.7111C35.3742 16.7236 35.8997 15.4161 35.8997 14.0531C35.8997 12.6901 35.3742 11.3826 34.389 10.395L27.0899 17.7111C28.0752 18.6987 29.3796 19.2254 30.7394 19.2254Z" fill="#FDBA1E"></path><path d="M27.0891 10.3941C26.1039 11.3817 25.5784 12.6891 25.5784 14.0522C25.5784 15.4152 26.1039 16.7227 27.0891 17.7102L34.3882 10.3941C33.4029 9.40653 32.0985 8.87988 30.7387 8.87988C29.3788 8.87988 28.0744 9.40653 27.0891 10.3941Z" fill="#0B0AA3"></path><path d="M33.169 16.4873C34.5084 15.1447 34.5084 12.9593 33.169 11.6167L28.3098 16.4873C29.6492 17.8299 31.8296 17.8299 33.169 16.4873Z" fill="#0B0AA3"></path><path d="M28.3098 11.6173C26.9704 12.9598 26.9704 15.1453 28.3098 16.4879L33.1691 11.6173C31.8296 10.2747 29.6493 10.2747 28.3098 11.6173Z" fill="#FDBA1E"></path><path d="M16.1305 28.6949L11.261 23.814L1.52187 33.5758L6.39143 38.4568L16.1305 28.6949Z" fill="#0B0AA3"></path><path d="M20.9999 33.5758L16.1304 28.6948L6.39126 38.4567L11.2608 43.3377L20.9999 33.5758Z" fill="#FDBA1E"></path><path d="M11.2609 40.4793C13.1002 40.4793 14.8295 39.7613 16.1303 38.4575C17.4311 37.1536 18.1475 35.4203 18.1475 33.5766C18.1475 31.733 17.4311 29.9996 16.1303 28.6958L6.39142 38.4575C7.69222 39.7613 9.42153 40.4793 11.2609 40.4793Z" fill="#0B0AA3"></path><path d="M6.39075 28.6952C5.08995 29.9991 4.3736 31.7324 4.3736 33.576C4.3736 35.4197 5.08995 37.153 6.39075 38.4569L16.1296 28.6952C14.8288 27.3914 13.0995 26.6733 11.2602 26.6733C9.42086 26.6733 7.69155 27.3914 6.39075 28.6952Z" fill="#FDBA1E"></path><path d="M11.2609 38.7493C12.6208 38.7493 13.9252 38.2226 14.9105 37.2351C15.8957 36.2475 16.4211 34.94 16.4211 33.577C16.4211 32.214 15.8957 30.9065 14.9105 29.9189L7.6114 37.2351C8.59666 38.2226 9.9011 38.7493 11.2609 38.7493Z" fill="#FDBA1E"></path><path d="M7.61061 29.918C6.62535 30.9056 6.09993 32.2131 6.09993 33.5761C6.09993 34.9391 6.62535 36.2466 7.61061 37.2341L14.9097 29.918C13.9244 28.9305 12.62 28.4038 11.2601 28.4038C9.90031 28.4038 8.59587 28.9305 7.61061 29.918Z" fill="#0B0AA3"></path><path d="M13.6905 36.0112C15.0299 34.6687 15.0299 32.4832 13.6905 31.1406L8.83126 36.0112C10.1707 37.3538 12.3511 37.3538 13.6905 36.0112Z" fill="#0B0AA3"></path><path d="M8.83131 31.1412C7.49189 32.4837 7.49189 34.6692 8.83131 36.0118L13.6906 31.1412C12.3511 29.7986 10.1707 29.7986 8.83131 31.1412Z" fill="#FDBA1E"></path><path d="M35.6086 28.6949L30.739 23.814L20.9999 33.5758L25.8695 38.4568L35.6086 28.6949Z" fill="#0B0AA3"></path><path d="M40.478 33.5767L35.6084 28.6958L25.8693 38.4577L30.7388 43.3386L40.478 33.5767Z" fill="#FDBA1E"></path><path d="M30.7395 40.4793C32.5788 40.4793 34.3081 39.7613 35.6089 38.4575C36.9097 37.1536 37.6261 35.4203 37.6261 33.5766C37.6261 31.733 36.9097 29.9996 35.6089 28.6958L25.8701 38.4575C27.1709 39.7613 28.9002 40.4793 30.7395 40.4793Z" fill="#0B0AA3"></path><path d="M25.8693 28.6957C24.5685 29.9995 23.8521 31.7329 23.8521 33.5765C23.8521 35.4202 24.5685 37.1535 25.8693 38.4573L35.6082 28.6957C34.3074 27.3919 32.5781 26.6738 30.7387 26.6738C28.8994 26.6738 27.1701 27.3919 25.8693 28.6957Z" fill="#FDBA1E"></path><path d="M30.7394 38.7493C32.0993 38.7493 33.4037 38.2226 34.389 37.2351C35.3742 36.2475 35.8997 34.94 35.8997 33.577C35.8997 32.214 35.3742 30.9065 34.389 29.9189L27.0899 37.2351C28.0752 38.2226 29.3796 38.7493 30.7394 38.7493Z" fill="#FDBA1E"></path><path d="M27.0892 29.9185C26.104 30.9061 25.5786 32.2136 25.5786 33.5766C25.5786 34.9396 26.104 36.2471 27.0892 37.2346L34.3883 29.9185C33.403 28.9309 32.0986 28.4043 30.7388 28.4043C29.3789 28.4043 28.0745 28.9309 27.0892 29.9185Z" fill="#0B0AA3"></path><path d="M33.169 36.0117C34.5084 34.6692 34.5084 32.4837 33.169 31.1411L28.3098 36.0117C29.6492 37.3543 31.8296 37.3543 33.169 36.0117Z" fill="#0B0AA3"></path><path d="M28.3098 31.1412C26.9704 32.4837 26.9704 34.6692 28.3098 36.0118L33.1691 31.1412C31.8296 29.7986 29.6493 29.7986 28.3098 31.1412Z" fill="#FDBA1E"></path><path d="M25.9095 18.9889L21.0399 14.1079L11.3008 23.8698L16.1704 28.7507L25.9095 18.9889Z" fill="#0B0AA3"></path><path d="M30.7787 23.8707L25.9092 18.9897L16.1701 28.7516L21.0396 33.6326L30.7787 23.8707Z" fill="#FDBA1E"></path><path d="M21.0403 30.7733C22.8796 30.7733 24.6089 30.0552 25.9097 28.7514C27.2105 27.4476 27.9269 25.7142 27.9269 23.8706C27.9269 22.0269 27.2105 20.2936 25.9097 18.9897L16.1708 28.7514C17.4716 30.0552 19.2009 30.7733 21.0403 30.7733Z" fill="#0B0AA3"></path><path d="M16.1701 18.9896C14.8692 20.2935 14.1529 22.0268 14.1529 23.8705C14.1529 25.7141 14.8692 27.4475 16.17 28.7513L25.9089 18.9896C24.6081 17.6858 22.8788 16.9678 21.0395 16.9678C19.2002 16.9678 17.4709 17.6858 16.1701 18.9896Z" fill="#FDBA1E"></path><path d="M21.0402 29.0437C22.4001 29.0437 23.7045 28.5171 24.6898 27.5295C25.675 26.5419 26.2004 25.2344 26.2004 23.8714C26.2004 22.5084 25.675 21.2009 24.6898 20.2134L17.3907 27.5295C18.376 28.5171 19.6804 29.0437 21.0402 29.0437Z" fill="#FDBA1E"></path><path d="M17.39 20.2125C16.4048 21.2 15.8793 22.5075 15.8793 23.8705C15.8793 25.2335 16.4048 26.541 17.39 27.5286L24.6891 20.2125C23.7038 19.2249 22.3994 18.6982 21.0396 18.6982C19.6797 18.6982 18.3753 19.2249 17.39 20.2125Z" fill="#0B0AA3"></path><path d="M23.4698 26.3057C24.8092 24.9631 24.8092 22.7776 23.4698 21.4351L18.6106 26.3057C19.95 27.6482 22.1304 27.6482 23.4698 26.3057Z" fill="#0B0AA3"></path><path d="M18.6106 21.4351C17.2712 22.7777 17.2712 24.9632 18.6106 26.3057L23.4698 21.4351C22.1304 20.0926 19.95 20.0926 18.6106 21.4351Z" fill="#FDBA1E"></path><path d="M1.74004 -5.4716L-3.12952 -10.3525L-12.8686 -0.590655L-7.99908 4.29029L1.74004 -5.4716Z" fill="#FDBA1E"></path><path d="M1.73956 43.339L1.73956 33.5767L-7.99932 43.339L1.73956 43.339Z" fill="#0B0AA3"></path><path d="M-5.14703 43.3392L1.73956 43.3392L1.73956 36.4365C-0.0997772 36.4365 -1.82908 37.1545 -3.12988 38.4584C-4.43068 39.7622 -5.14703 41.4956 -5.14703 43.3392Z" fill="#FDBA1E"></path><path d="M-3.42065 43.3393L1.73956 43.3393L1.73956 38.167C0.379734 38.167 -0.924711 38.6936 -1.90997 39.6812C-2.89522 40.6688 -3.42065 41.9763 -3.42065 43.3393Z" fill="#0B0AA3"></path><path d="M-1.69499 43.3391L1.73956 43.3391L1.73956 39.8965C0.859974 39.8965 -0.0203444 40.2325 -0.690057 40.9038C-1.35977 41.575 -1.69499 42.4574 -1.69499 43.3391Z" fill="#FDBA1E"></path><path d="M1.73944 -5.47119L-7.99944 4.29046L-3.13 9.17129L1.73944 4.29046L1.73944 -5.47119Z" fill="#0B0AA3"></path><path d="M1.73962 4.29053L-3.12982 9.17135L1.73962 14.0522L1.73962 4.29053Z" fill="#FDBA1E"></path><path d="M1.73962 4.29053L-3.12982 9.17135C-1.82902 10.4752 -0.0997165 11.1932 1.73962 11.1932L1.73962 4.29053Z" fill="#0B0AA3"></path><path d="M1.73962 -2.61182C-0.0997162 -2.61182 -1.82902 -1.89379 -3.12982 -0.589948C-4.43062 0.713895 -5.14697 2.44724 -5.14697 4.29088C-5.14697 6.13452 -4.43062 7.86786 -3.12982 9.1717L1.73962 4.29088L1.73962 -2.61182Z" fill="#FDBA1E"></path><path d="M1.73962 4.29053L-1.90991 7.94859C-0.924651 8.93615 0.379794 9.4628 1.73962 9.4628L1.73962 4.29053Z" fill="#FDBA1E"></path><path d="M1.73962 -0.881348C0.379795 -0.881348 -0.92465 -0.354697 -1.90991 0.632863C-2.89516 1.62042 -3.42059 2.92792 -3.42059 4.29093C-3.42059 5.65393 -2.89516 6.96143 -1.90991 7.94899L1.73962 4.29093L1.73962 -0.881348Z" fill="#0B0AA3"></path><path d="M1.73962 4.29053L-0.689996 6.72583C-0.0202838 7.3971 0.860034 7.73311 1.73962 7.73311L1.73962 4.29053Z" fill="#0B0AA3"></path><path d="M1.73962 0.848145C0.860035 0.848144 -0.0202836 1.18415 -0.689996 1.85543C-2.02942 3.19798 -2.02942 5.38347 -0.689996 6.72603L1.73962 4.29073L1.73962 0.848145Z" fill="#FDBA1E"></path><path d="M1.73944 14.0522L-7.99944 23.8146L-3.13 28.6955L1.73944 23.8146L1.73944 14.0522Z" fill="#0B0AA3"></path><path d="M1.73962 23.8145L-3.12982 28.6953L1.73962 33.5761L1.73962 23.8145Z" fill="#FDBA1E"></path><path d="M1.73962 23.8145L-3.12982 28.6953C-1.82902 29.9991 -0.0997165 30.7171 1.73962 30.7171L1.73962 23.8145Z" fill="#0B0AA3"></path><path d="M1.73962 16.9121C-0.0997162 16.9121 -1.82902 17.6301 -3.12982 18.934C-4.43062 20.2378 -5.14697 21.9712 -5.14697 23.8148C-5.14697 25.6584 -4.43062 27.3918 -3.12982 28.6956L1.73962 23.8148L1.73962 16.9121Z" fill="#FDBA1E"></path><path d="M1.73962 23.8145L-1.90991 27.4725C-0.924651 28.4601 0.379794 28.9867 1.73962 28.9867L1.73962 23.8145Z" fill="#FDBA1E"></path><path d="M1.73962 18.6416C0.379795 18.6416 -0.92465 19.1682 -1.90991 20.1558C-2.89516 21.1434 -3.42059 22.4509 -3.42059 23.8139C-3.42059 25.1769 -2.89516 26.4844 -1.90991 27.4719L1.73962 23.8146L1.73962 18.6423L1.73962 18.6416Z" fill="#0B0AA3"></path><path d="M1.73962 23.8145L-0.689996 26.2498C-0.0202838 26.921 0.860034 27.257 1.73962 27.257L1.73962 23.8145Z" fill="#0B0AA3"></path><path d="M1.73962 20.3721C0.860035 20.3721 -0.0202836 20.7081 -0.689996 21.3794C-2.02942 22.7219 -2.02942 24.9074 -0.689996 26.25L1.73962 23.8147L1.73962 20.3721Z" fill="#FDBA1E"></path><path d="M1.73961 14.0528L-3.12994 9.17188L-12.8691 18.9338L-7.9995 23.8147L1.73961 14.0528Z" fill="#FDBA1E"></path><path d="M1.73925 33.5763L-3.13031 28.6953L-12.8694 38.4572L-7.99987 43.3381L1.73925 33.5763Z" fill="#FDBA1E"></path></g><path d="M38.7958 10.8108C41.7862 10.8108 44.2103 8.39073 44.2103 5.4054C44.2103 2.42008 41.7862 0 38.7958 0C35.8055 0 33.3813 2.42008 33.3813 5.4054C33.3813 8.39073 35.8055 10.8108 38.7958 10.8108Z" fill="#FDBA1E"></path></g><defs><clipPath id="clip0_2349_28055"><rect width="43.5556" height="40" fill="white" transform="translate(0.654785)"></rect></clipPath></defs></svg>