<svg xmlns="http://www.w3.org/2000/svg" width="44" height="40" viewBox="0 0 44 40" fill="none"><g clip-path="url(#clip0_2349_27111)"><mask id="mask0_2349_27111" style="mask-type:alpha" maskUnits="userSpaceOnUse" x="-40" y="0" width="80" height="80"><path d="M39.6066 39.9168C39.6066 61.7807 21.8823 79.5049 0.0183997 79.5049C-21.8455 79.5049 -39.5698 61.7807 -39.5698 39.9168C-39.5698 18.0528 -21.8455 0.328614 0.0184021 0.328614C21.8823 0.328615 39.6066 18.0528 39.6066 39.9168ZM-16.4462 39.9168C-16.4462 49.0099 -9.07476 56.3814 0.0184004 56.3814C9.11156 56.3814 16.483 49.0099 16.483 39.9168C16.483 30.8236 9.11156 23.4522 0.0184014 23.4522C-9.07476 23.4522 -16.4462 30.8236 -16.4462 39.9168Z" fill="#D9D9D9"></path></mask><g mask="url(#mask0_2349_27111)"><path d="M20.3391 -5.4716L15.4695 -10.3525L5.73043 -0.590655L10.6 4.29029L20.3391 -5.4716Z" fill="#EFE914"></path><path d="M10.6 1.43098C12.4393 1.43098 14.1686 0.712955 15.4694 -0.590887C16.7702 -1.89473 17.4866 -3.62807 17.4866 -5.47171C17.4866 -7.31535 16.7702 -9.0487 15.4694 -10.3525L5.73053 -0.590888C7.03134 0.712955 8.76064 1.43098 10.6 1.43098Z" fill="#0B0AA3"></path><path d="M39.8177 -5.4716L34.9481 -10.3525L25.209 -0.590655L30.0786 4.29029L39.8177 -5.4716Z" fill="#EFE914"></path><path d="M30.0784 1.43147C31.9177 1.43147 33.647 0.713444 34.9478 -0.590399C36.2486 -1.89424 36.965 -3.62758 36.965 -5.47123C36.965 -7.31487 36.2486 -9.04821 34.9478 -10.3521L25.2089 -0.5904C26.5097 0.713443 28.239 1.43147 30.0784 1.43147Z" fill="#0B0AA3"></path><path d="M0.860294 33.5762L0.860293 43.3386L5.72974 38.4577L0.860294 33.5762Z" fill="#0B0AA3"></path><path d="M5.72974 38.458L0.860301 43.3388L10.5999 43.3388L5.72974 38.458Z" fill="#EFE914"></path><path d="M5.72973 38.458L0.860292 43.3388L7.74689 43.3388C7.74689 41.4952 7.03054 39.7619 5.72973 38.458Z" fill="#0B0AA3"></path><path d="M0.860294 36.436L0.860293 43.3387L5.72974 38.4579C4.42893 37.1541 2.69963 36.436 0.860294 36.436Z" fill="#EFE914"></path><path d="M4.50983 39.6807L0.860298 43.3387L6.02051 43.3387C6.02051 41.9757 5.49509 40.6682 4.50983 39.6807Z" fill="#EFE914"></path><path d="M0.860295 38.1655L0.860294 43.3378L4.50983 39.6797C3.52457 38.6922 2.22012 38.1655 0.860295 38.1655Z" fill="#0B0AA3"></path><path d="M0.8603 39.896L0.860299 43.3386L3.28992 40.9033C2.6202 40.232 1.73989 39.896 0.8603 39.896Z" fill="#EFE914"></path><path d="M10.5998 43.3386L20.3387 43.3386L25.2081 38.4577L20.3387 33.5762L10.5998 43.3386Z" fill="#0B0AA3"></path><path d="M25.2081 38.458L20.3386 43.3388L30.0782 43.3388L25.2081 38.458Z" fill="#EFE914"></path><path d="M25.2081 38.458L20.3386 43.3388L27.2252 43.3388C27.2252 41.4952 26.5089 39.7619 25.2081 38.458Z" fill="#0B0AA3"></path><path d="M15.4692 38.4579C14.1684 39.7617 13.452 41.4951 13.452 43.3387L20.3386 43.3387L25.2081 38.4579C23.9073 37.1541 22.178 36.436 20.3386 36.436C18.4993 36.436 16.77 37.1541 15.4692 38.4579Z" fill="#EFE914"></path><path d="M23.9882 39.6807L20.3386 43.3387L25.4988 43.3387C25.4988 41.9757 24.9734 40.6682 23.9882 39.6807Z" fill="#EFE914"></path><path d="M16.6891 39.6807C15.7038 40.6683 15.1784 41.9758 15.1784 43.3388L20.3394 43.3388L23.9889 39.6807C23.0036 38.6932 21.6992 38.1665 20.3394 38.1665C18.9795 38.1665 17.6751 38.6932 16.6898 39.6807L16.6891 39.6807Z" fill="#0B0AA3"></path><path d="M17.9091 40.9034C17.2394 41.5747 16.9041 42.4571 16.9041 43.3387L20.3387 43.3387L22.7683 40.9034C21.4289 39.5608 19.2485 39.5608 17.9091 40.9034Z" fill="#EFE914"></path><path d="M30.0783 43.3386L39.8172 43.3386L44.6866 38.4577L39.8172 33.5762L30.0783 43.3386Z" fill="#0B0AA3"></path><path d="M34.9478 38.4579C33.647 39.7617 32.9306 41.4951 32.9306 43.3387L39.8172 43.3387L44.6866 38.4579C43.3858 37.1541 41.6565 36.436 39.8172 36.436C37.9779 36.436 36.2486 37.1541 34.9478 38.4579Z" fill="#EFE914"></path><path d="M36.1677 39.6807C35.1824 40.6683 34.657 41.9758 34.657 43.3388L39.8172 43.3388L43.4667 39.6807C42.4815 38.6932 41.177 38.1665 39.8172 38.1665C38.4574 38.1665 37.1529 38.6932 36.1677 39.6807Z" fill="#0B0AA3"></path><path d="M37.3876 40.9034C36.7179 41.5747 36.3827 42.4571 36.3827 43.3387L39.8172 43.3387L42.2468 40.9034C40.9074 39.5608 38.727 39.5608 37.3876 40.9034Z" fill="#EFE914"></path><path d="M0.860293 4.2907L5.72974 -0.590124L0.860294 -5.47168L0.860294 -5.47095L0.860293 4.2907Z" fill="#0B0AA3"></path><path d="M0.860301 4.29001L0.8603 14.0517L10.5999 4.29001L5.72974 -0.590821L0.860301 4.29001Z" fill="#EFE914"></path><path d="M0.860292 4.29001L0.860292 11.1927C2.69963 11.1927 4.42893 10.4747 5.72973 9.17083C7.03054 7.86699 7.74689 6.13365 7.74689 4.29001C7.74689 2.44637 7.03054 0.713022 5.72973 -0.59082L0.860292 4.29001Z" fill="#0B0AA3"></path><path d="M0.860293 4.29039L5.72974 -0.590436C4.42893 -1.89428 2.69963 -2.6123 0.860294 -2.61231L0.860293 4.29039Z" fill="#EFE914"></path><path d="M0.860359 4.2899L0.860359 9.46217C2.22019 9.46217 3.52463 8.93552 4.50989 7.94796C5.49515 6.9604 6.02057 5.65291 6.02057 4.2899C6.02057 2.92689 5.49515 1.6194 4.50989 0.631836L0.860359 4.2899Z" fill="#EFE914"></path><path d="M0.860294 4.28995L4.50983 0.631887C3.52457 -0.355673 2.22012 -0.882324 0.860295 -0.882324L0.860294 4.28995Z" fill="#0B0AA3"></path><path d="M0.860308 4.29028L0.860308 7.73286C1.7399 7.73286 2.62021 7.39686 3.28993 6.72558C4.62935 5.38303 4.62935 3.19754 3.28993 1.85498L0.860308 4.29028Z" fill="#0B0AA3"></path><path d="M0.860299 4.29073L3.28992 1.85543C2.6202 1.18415 1.73989 0.848144 0.8603 0.848144L0.860299 4.29073Z" fill="#EFE914"></path><path d="M25.2082 -0.590248L20.3386 -5.47119L10.5995 4.29069L15.4691 9.17164L25.2082 -0.590248Z" fill="#0B0AA3"></path><path d="M30.0774 4.29012L25.2079 -0.59082L15.4688 9.17106L20.3383 14.052L30.0774 4.29012Z" fill="#EFE914"></path><path d="M20.3388 11.1932C22.1781 11.1932 23.9074 10.4752 25.2082 9.17132C26.509 7.86748 27.2254 6.13413 27.2254 4.29049C27.2254 2.44685 26.509 0.71351 25.2082 -0.590332L15.4694 9.17132C16.7702 10.4752 18.4995 11.1932 20.3388 11.1932Z" fill="#0B0AA3"></path><path d="M15.4692 -0.589948C14.1684 0.713895 13.452 2.44724 13.452 4.29088C13.452 6.13452 14.1684 7.86786 15.4692 9.1717L25.2081 -0.589947C23.9073 -1.89379 22.178 -2.61182 20.3386 -2.61182C18.4993 -2.61182 16.77 -1.89379 15.4692 -0.589948Z" fill="#EFE914"></path><path d="M20.3387 9.46315C21.6985 9.46315 23.003 8.9365 23.9882 7.94894C24.9735 6.96138 25.4989 5.65388 25.4989 4.29088C25.4989 2.92787 24.9735 1.62037 23.9882 0.632812L16.6892 7.94894C17.6744 8.9365 18.9789 9.46315 20.3387 9.46315Z" fill="#EFE914"></path><path d="M16.6892 0.632863C15.7039 1.62042 15.1785 2.92792 15.1785 4.29093C15.1785 5.65393 15.7039 6.96143 16.6892 7.94899L23.9882 0.632863C23.003 -0.354697 21.6985 -0.881348 20.3387 -0.881348C18.9789 -0.881348 17.6744 -0.354697 16.6892 0.632863Z" fill="#0B0AA3"></path><path d="M22.7683 6.72607C24.1077 5.38351 24.1077 3.19802 22.7683 1.85547L17.9091 6.72607C19.2485 8.06862 21.4289 8.06862 22.7683 6.72607Z" fill="#0B0AA3"></path><path d="M17.9091 1.85604C16.5696 3.19859 16.5696 5.38408 17.9091 6.72664L22.7683 1.85604C21.4289 0.513482 19.2485 0.513482 17.9091 1.85604Z" fill="#EFE914"></path><path d="M44.687 -0.590248L39.8174 -5.47119L30.0783 4.29069L34.9479 9.17164L44.687 -0.590248Z" fill="#0B0AA3"></path><path d="M49.5563 4.29061L44.6868 -0.590332L34.9477 9.17155L39.8172 14.0525L49.5563 4.29061Z" fill="#EFE914"></path><path d="M39.8173 11.1932C41.6567 11.1932 43.386 10.4752 44.6868 9.17132C45.9876 7.86748 46.7039 6.13413 46.7039 4.29049C46.7039 2.44685 45.9876 0.71351 44.6868 -0.590332L34.9479 9.17132C36.2487 10.4752 37.978 11.1932 39.8173 11.1932Z" fill="#0B0AA3"></path><path d="M34.9479 -0.589948C33.6471 0.713895 32.9307 2.44724 32.9307 4.29088C32.9307 6.13452 33.6471 7.86786 34.9479 9.1717L44.6868 -0.589947C43.386 -1.89379 41.6567 -2.61182 39.8173 -2.61182C37.978 -2.61182 36.2487 -1.89379 34.9479 -0.589948Z" fill="#EFE914"></path><path d="M39.8173 9.46315C41.1771 9.46315 42.4815 8.9365 43.4668 7.94894C44.4521 6.96138 44.9775 5.65388 44.9775 4.29088C44.9775 2.92787 44.4521 1.62037 43.4668 0.632812L36.1677 7.94894C37.153 8.9365 38.4574 9.46315 39.8173 9.46315Z" fill="#EFE914"></path><path d="M36.1677 0.632863C35.1825 1.62042 34.6571 2.92792 34.6571 4.29093C34.6571 5.65393 35.1825 6.96143 36.1677 7.94899L43.4668 0.632863C42.4815 -0.354697 41.1771 -0.881348 39.8173 -0.881348C38.4574 -0.881348 37.153 -0.354697 36.1677 0.632863Z" fill="#0B0AA3"></path><path d="M42.2469 6.72607C43.5863 5.38351 43.5863 3.19802 42.2469 1.85547L37.3877 6.72607C38.7271 8.06862 40.9075 8.06862 42.2469 6.72607Z" fill="#0B0AA3"></path><path d="M37.3877 1.85604C36.0483 3.19859 36.0483 5.38408 37.3877 6.72664L42.2469 1.85604C40.9075 0.513482 38.7271 0.513482 37.3877 1.85604Z" fill="#EFE914"></path><path d="M0.860171 23.8146L5.72961 18.9338L0.860172 14.0522L0.860171 23.8146Z" fill="#0B0AA3"></path><path d="M0.860179 23.8149L0.860178 33.5766L10.5998 23.8149L5.72962 18.9341L0.860179 23.8149Z" fill="#EFE914"></path><path d="M0.86017 23.8149L0.860169 30.7176C2.69951 30.7176 4.42881 29.9996 5.72961 28.6957C7.03041 27.3919 7.74676 25.6585 7.74676 23.8149C7.74676 21.9713 7.03041 20.2379 5.72961 18.9341L0.86017 23.8149Z" fill="#0B0AA3"></path><path d="M0.860171 23.8148L5.72961 18.934C4.42881 17.6301 2.69951 16.9121 0.860172 16.9121L0.860171 23.8148Z" fill="#EFE914"></path><path d="M0.860176 23.8148L0.860176 28.9871C2.22001 28.9871 3.52445 28.4604 4.50971 27.4729C5.49497 26.4853 6.02039 25.1778 6.02039 23.8148C6.02039 22.4518 5.49497 21.1443 4.50971 20.1567L0.860176 23.8148Z" fill="#EFE914"></path><path d="M0.860172 23.8149L4.5097 20.1568C3.52445 19.1692 2.22 18.6426 0.860173 18.6426L0.860172 23.8149Z" fill="#0B0AA3"></path><path d="M0.860125 23.8152L0.860125 27.2578C1.73971 27.2578 2.62003 26.9218 3.28974 26.2505C4.62917 24.9079 4.62917 22.7224 3.28974 21.3799L0.860125 23.8152Z" fill="#0B0AA3"></path><path d="M0.860177 23.8147L3.28979 21.3794C2.62008 20.7081 1.73977 20.3721 0.860178 20.3721L0.860177 23.8147Z" fill="#EFE914"></path><path d="M44.6871 18.9337L39.8175 14.0527L30.0784 23.8146L34.9479 28.6956L44.6871 18.9337Z" fill="#0B0AA3"></path><path d="M49.5564 23.8145L44.6868 18.9336L34.9477 28.6955L39.8173 33.5764L49.5564 23.8145Z" fill="#EFE914"></path><path d="M39.8172 30.7171C41.6565 30.7171 43.3858 29.9991 44.6866 28.6952C45.9874 27.3914 46.7038 25.6581 46.7038 23.8144C46.7038 21.9708 45.9874 20.2374 44.6866 18.9336L34.9478 28.6952C36.2486 29.9991 37.9779 30.7171 39.8172 30.7171Z" fill="#0B0AA3"></path><path d="M34.9478 18.9335C33.647 20.2373 32.9307 21.9707 32.9307 23.8143C32.9307 25.658 33.647 27.3913 34.9478 28.6951L44.6867 18.9335C43.3859 17.6296 41.6566 16.9116 39.8173 16.9116C37.9779 16.9116 36.2486 17.6296 34.9478 18.9335Z" fill="#EFE914"></path><path d="M39.8173 28.9866C41.1771 28.9866 42.4815 28.4599 43.4668 27.4724C44.4521 26.4848 44.9775 25.1773 44.9775 23.8143C44.9775 22.4513 44.4521 21.1438 43.4668 20.1562L36.1677 27.4724C37.153 28.4599 38.4574 28.9866 39.8173 28.9866Z" fill="#EFE914"></path><path d="M36.1677 20.1563C35.1824 21.1439 34.657 22.4514 34.657 23.8144C34.657 25.1774 35.1824 26.4849 36.1677 27.4724L43.4667 20.1563C42.4815 19.1687 41.177 18.6421 39.8172 18.6421C38.4574 18.6421 37.1529 19.1687 36.1677 20.1563Z" fill="#0B0AA3"></path><path d="M42.2469 26.25C43.5863 24.9074 43.5863 22.722 42.2469 21.3794L37.3877 26.25C38.7271 27.5925 40.9075 27.5926 42.2469 26.25Z" fill="#0B0AA3"></path><path d="M37.3876 21.379C36.0482 22.7215 36.0482 24.907 37.3876 26.2496L42.2469 21.379C40.9075 20.0364 38.7271 20.0364 37.3876 21.379Z" fill="#EFE914"></path><path d="M15.4695 9.17098L10.6 4.29004L0.86086 14.0519L5.73042 18.9329L15.4695 9.17098Z" fill="#0B0AA3"></path><path d="M20.3393 14.0533L15.4697 9.17236L5.73061 18.9342L10.6002 23.8152L20.3393 14.0533Z" fill="#EFE914"></path><path d="M10.6 20.9559C12.4393 20.9559 14.1686 20.2379 15.4694 18.934C16.7702 17.6302 17.4866 15.8968 17.4866 14.0532C17.4866 12.2095 16.7702 10.4762 15.4694 9.17236L5.73053 18.934C7.03134 20.2379 8.76064 20.9559 10.6 20.9559Z" fill="#0B0AA3"></path><path d="M5.73005 9.17177C4.42925 10.4756 3.7129 12.209 3.7129 14.0526C3.7129 15.8962 4.42925 17.6296 5.73005 18.9334L15.4689 9.17177C14.1681 7.86793 12.4388 7.1499 10.5995 7.1499C8.76015 7.1499 7.03085 7.86793 5.73005 9.17177Z" fill="#EFE914"></path><path d="M10.6 19.2258C11.9598 19.2258 13.2643 18.6992 14.2495 17.7116C15.2348 16.7241 15.7602 15.4166 15.7602 14.0536C15.7602 12.6906 15.2348 11.3831 14.2495 10.3955L6.95045 17.7116C7.93571 18.6992 9.24015 19.2258 10.6 19.2258Z" fill="#EFE914"></path><path d="M6.94978 10.3946C5.96452 11.3821 5.4391 12.6896 5.4391 14.0526C5.4391 15.4157 5.96452 16.7231 6.94978 17.7107L14.2488 10.3946C13.2636 9.40702 11.9591 8.88037 10.5993 8.88037C9.23948 8.88037 7.93504 9.40702 6.94978 10.3946Z" fill="#0B0AA3"></path><path d="M13.0296 16.4883C14.369 15.1457 14.369 12.9602 13.0296 11.6177L8.17037 16.4883C9.5098 17.8308 11.6902 17.8308 13.0296 16.4883Z" fill="#0B0AA3"></path><path d="M8.17042 11.6173C6.831 12.9598 6.831 15.1453 8.17042 16.4879L13.0297 11.6173C11.6902 10.2747 9.50985 10.2747 8.17042 11.6173Z" fill="#EFE914"></path><path d="M34.9474 9.17147L30.0778 4.29053L20.3387 14.0524L25.2083 18.9334L34.9474 9.17147Z" fill="#0B0AA3"></path><path d="M39.8179 14.0528L34.9483 9.17188L25.2092 18.9338L30.0787 23.8147L39.8179 14.0528Z" fill="#EFE914"></path><path d="M30.0784 20.9559C31.9178 20.9559 33.6471 20.2379 34.9479 18.934C36.2487 17.6302 36.965 15.8968 36.965 14.0532C36.965 12.2095 36.2487 10.4762 34.9479 9.17236L25.209 18.934C26.5098 20.2379 28.2391 20.9559 30.0784 20.9559Z" fill="#0B0AA3"></path><path d="M25.2083 9.17128C23.9075 10.4751 23.1911 12.2085 23.1911 14.0521C23.1911 15.8957 23.9075 17.6291 25.2083 18.9329L34.9471 9.17128C33.6463 7.86744 31.917 7.14941 30.0777 7.14941C28.2384 7.14941 26.5091 7.86744 25.2083 9.17128Z" fill="#EFE914"></path><path d="M30.0784 19.2254C31.4382 19.2254 32.7426 18.6987 33.7279 17.7111C34.7132 16.7236 35.2386 15.4161 35.2386 14.0531C35.2386 12.6901 34.7132 11.3826 33.7279 10.395L26.4288 17.7111C27.4141 18.6987 28.7185 19.2254 30.0784 19.2254Z" fill="#EFE914"></path><path d="M26.4281 10.3941C25.4429 11.3817 24.9174 12.6891 24.9174 14.0522C24.9174 15.4152 25.4429 16.7227 26.4281 17.7102L33.7272 10.3941C32.7419 9.40653 31.4375 8.87988 30.0776 8.87988C28.7178 8.87988 27.4134 9.40653 26.4281 10.3941Z" fill="#0B0AA3"></path><path d="M32.5081 16.4873C33.8475 15.1447 33.8475 12.9593 32.5081 11.6167L27.6488 16.4873C28.9883 17.8299 31.1686 17.8299 32.5081 16.4873Z" fill="#0B0AA3"></path><path d="M27.6488 11.6173C26.3093 12.9598 26.3093 15.1453 27.6488 16.4879L32.508 11.6173C31.1686 10.2747 28.9882 10.2747 27.6488 11.6173Z" fill="#EFE914"></path><path d="M15.4695 28.6949L10.5999 23.814L0.860799 33.5758L5.73036 38.4568L15.4695 28.6949Z" fill="#0B0AA3"></path><path d="M20.3387 33.5758L15.4692 28.6948L5.73006 38.4567L10.5996 43.3377L20.3387 33.5758Z" fill="#EFE914"></path><path d="M10.5997 40.4793C12.4391 40.4793 14.1684 39.7613 15.4692 38.4575C16.77 37.1536 17.4863 35.4203 17.4863 33.5766C17.4863 31.733 16.77 29.9996 15.4692 28.6958L5.73029 38.4575C7.03109 39.7613 8.76039 40.4793 10.5997 40.4793Z" fill="#0B0AA3"></path><path d="M5.72956 28.6952C4.42876 29.9991 3.71241 31.7324 3.71241 33.576C3.71241 35.4197 4.42876 37.153 5.72956 38.4569L15.4684 28.6952C14.1676 27.3914 12.4383 26.6733 10.599 26.6733C8.75966 26.6733 7.03036 27.3914 5.72956 28.6952Z" fill="#EFE914"></path><path d="M10.5998 38.7493C11.9596 38.7493 13.2641 38.2226 14.2493 37.2351C15.2346 36.2475 15.76 34.94 15.76 33.577C15.76 32.214 15.2346 30.9065 14.2493 29.9189L6.95027 37.2351C7.93552 38.2226 9.23997 38.7493 10.5998 38.7493Z" fill="#EFE914"></path><path d="M6.94948 29.918C5.96422 30.9056 5.4388 32.2131 5.4388 33.5761C5.4388 34.9391 5.96422 36.2466 6.94948 37.2341L14.2485 29.918C13.2633 28.9305 11.9588 28.4038 10.599 28.4038C9.23918 28.4038 7.93473 28.9305 6.94948 29.918Z" fill="#0B0AA3"></path><path d="M13.0294 36.0112C14.3688 34.6687 14.3688 32.4832 13.0294 31.1406L8.17013 36.0112C9.50955 37.3538 11.6899 37.3538 13.0294 36.0112Z" fill="#0B0AA3"></path><path d="M8.17012 31.1412C6.83069 32.4837 6.83069 34.6692 8.17012 36.0118L13.0294 31.1412C11.6899 29.7986 9.50954 29.7986 8.17012 31.1412Z" fill="#EFE914"></path><path d="M34.9475 28.6949L30.0779 23.814L20.3388 33.5758L25.2084 38.4568L34.9475 28.6949Z" fill="#0B0AA3"></path><path d="M39.8168 33.5767L34.9472 28.6958L25.2081 38.4577L30.0776 43.3386L39.8168 33.5767Z" fill="#EFE914"></path><path d="M30.0783 40.4793C31.9176 40.4793 33.647 39.7613 34.9478 38.4575C36.2486 37.1536 36.9649 35.4203 36.9649 33.5766C36.9649 31.733 36.2486 29.9996 34.9478 28.6958L25.2089 38.4575C26.5097 39.7613 28.239 40.4793 30.0783 40.4793Z" fill="#0B0AA3"></path><path d="M25.2082 28.6957C23.9074 29.9995 23.191 31.7329 23.191 33.5765C23.191 35.4202 23.9074 37.1535 25.2082 38.4573L34.9471 28.6957C33.6463 27.3919 31.917 26.6738 30.0776 26.6738C28.2383 26.6738 26.509 27.3919 25.2082 28.6957Z" fill="#EFE914"></path><path d="M30.0783 38.7493C31.4381 38.7493 32.7426 38.2226 33.7278 37.2351C34.7131 36.2475 35.2385 34.94 35.2385 33.577C35.2385 32.214 34.7131 30.9065 33.7278 29.9189L26.4288 37.2351C27.414 38.2226 28.7185 38.7493 30.0783 38.7493Z" fill="#EFE914"></path><path d="M26.428 29.9185C25.4428 30.9061 24.9174 32.2136 24.9174 33.5766C24.9174 34.9396 25.4428 36.2471 26.428 37.2346L33.7271 29.9185C32.7419 28.9309 31.4374 28.4043 30.0776 28.4043C28.7178 28.4043 27.4133 28.9309 26.428 29.9185Z" fill="#0B0AA3"></path><path d="M32.5079 36.0117C33.8474 34.6692 33.8474 32.4837 32.5079 31.1411L27.6487 36.0117C28.9881 37.3543 31.1685 37.3543 32.5079 36.0117Z" fill="#0B0AA3"></path><path d="M27.6487 31.1412C26.3093 32.4837 26.3093 34.6692 27.6487 36.0118L32.5079 31.1412C31.1685 29.7986 28.9881 29.7986 27.6487 31.1412Z" fill="#EFE914"></path><path d="M25.2484 18.9889L20.3788 14.1079L10.6397 23.8698L15.5093 28.7507L25.2484 18.9889Z" fill="#0B0AA3"></path><path d="M30.1175 23.8707L25.248 18.9897L15.5089 28.7516L20.3784 33.6326L30.1175 23.8707Z" fill="#EFE914"></path><path d="M20.3792 30.7733C22.2185 30.7733 23.9478 30.0552 25.2486 28.7514C26.5494 27.4476 27.2657 25.7142 27.2657 23.8706C27.2657 22.0269 26.5494 20.2936 25.2486 18.9897L15.5097 28.7514C16.8105 30.0552 18.5398 30.7733 20.3792 30.7733Z" fill="#0B0AA3"></path><path d="M15.509 18.9896C14.2082 20.2935 13.4918 22.0268 13.4918 23.8705C13.4918 25.7141 14.2082 27.4475 15.509 28.7513L25.2479 18.9896C23.9471 17.6858 22.2178 16.9678 20.3784 16.9678C18.5391 16.9678 16.8098 17.6858 15.509 18.9896Z" fill="#EFE914"></path><path d="M20.3791 29.0437C21.7389 29.0437 23.0434 28.5171 24.0286 27.5295C25.0139 26.5419 25.5393 25.2344 25.5393 23.8714C25.5393 22.5084 25.0139 21.2009 24.0286 20.2134L16.7296 27.5295C17.7148 28.5171 19.0193 29.0437 20.3791 29.0437Z" fill="#EFE914"></path><path d="M16.7288 20.2125C15.7436 21.2 15.2182 22.5075 15.2182 23.8705C15.2182 25.2335 15.7436 26.541 16.7288 27.5286L24.0279 20.2125C23.0426 19.2249 21.7382 18.6982 20.3784 18.6982C19.0185 18.6982 17.7141 19.2249 16.7288 20.2125Z" fill="#0B0AA3"></path><path d="M22.8087 26.3057C24.1481 24.9631 24.1481 22.7776 22.8087 21.4351L17.9495 26.3057C19.2889 27.6482 21.4693 27.6482 22.8087 26.3057Z" fill="#0B0AA3"></path><path d="M17.9495 21.4351C16.6101 22.7777 16.6101 24.9632 17.9495 26.3057L22.8087 21.4351C21.4693 20.0926 19.2889 20.0926 17.9495 21.4351Z" fill="#EFE914"></path><path d="M1.07891 -5.4716L-3.79065 -10.3525L-13.5298 -0.590655L-8.66021 4.29029L1.07891 -5.4716Z" fill="#EFE914"></path><path d="M1.07843 43.339L1.07843 33.5767L-8.66045 43.339L1.07843 43.339Z" fill="#0B0AA3"></path><path d="M-5.80817 43.3392L1.07843 43.3392L1.07843 36.4365C-0.76091 36.4365 -2.49021 37.1545 -3.79101 38.4584C-5.09181 39.7622 -5.80816 41.4956 -5.80817 43.3392Z" fill="#EFE914"></path><path d="M-4.08178 43.3393L1.07843 43.3393L1.07843 38.167C-0.281399 38.167 -1.58584 38.6936 -2.5711 39.6812C-3.55636 40.6688 -4.08178 41.9763 -4.08178 43.3393Z" fill="#0B0AA3"></path><path d="M-2.35612 43.3391L1.07843 43.3391L1.07843 39.8965C0.198841 39.8965 -0.681477 40.2325 -1.35119 40.9038C-2.0209 41.575 -2.35612 42.4574 -2.35612 43.3391Z" fill="#EFE914"></path><path d="M1.07831 -5.47119L-8.66058 4.29046L-3.79113 9.17129L1.07831 4.29046L1.07831 -5.47119Z" fill="#0B0AA3"></path><path d="M1.07849 4.29053L-3.79095 9.17135L1.07849 14.0522L1.07849 4.29053Z" fill="#EFE914"></path><path d="M1.07849 4.29053L-3.79095 9.17135C-2.49015 10.4752 -0.760849 11.1932 1.07849 11.1932L1.07849 4.29053Z" fill="#0B0AA3"></path><path d="M1.07849 -2.61182C-0.760849 -2.61182 -2.49015 -1.89379 -3.79095 -0.589948C-5.09175 0.713895 -5.8081 2.44724 -5.8081 4.29088C-5.8081 6.13452 -5.09175 7.86786 -3.79095 9.1717L1.07849 4.29088L1.07849 -2.61182Z" fill="#EFE914"></path><path d="M1.07849 4.29053L-2.57104 7.94859C-1.58578 8.93615 -0.281338 9.4628 1.07849 9.4628L1.07849 4.29053Z" fill="#EFE914"></path><path d="M1.07849 -0.881348C-0.281338 -0.881348 -1.58578 -0.354697 -2.57104 0.632863C-3.5563 1.62042 -4.08172 2.92792 -4.08172 4.29093C-4.08172 5.65393 -3.5563 6.96143 -2.57104 7.94899L1.07849 4.29093L1.07849 -0.881348Z" fill="#0B0AA3"></path><path d="M1.07849 4.29053L-1.35113 6.72583C-0.681417 7.3971 0.198902 7.73311 1.07849 7.73311L1.07849 4.29053Z" fill="#0B0AA3"></path><path d="M1.07849 0.848145C0.198902 0.848144 -0.681416 1.18415 -1.35113 1.85543C-2.69055 3.19798 -2.69055 5.38347 -1.35113 6.72603L1.07849 4.29073L1.07849 0.848145Z" fill="#EFE914"></path><path d="M1.07831 14.0522L-8.66058 23.8146L-3.79113 28.6955L1.07831 23.8146L1.07831 14.0522Z" fill="#0B0AA3"></path><path d="M1.07849 23.8145L-3.79095 28.6953L1.07849 33.5761L1.07849 23.8145Z" fill="#EFE914"></path><path d="M1.07849 23.8145L-3.79095 28.6953C-2.49015 29.9991 -0.760849 30.7171 1.07849 30.7171L1.07849 23.8145Z" fill="#0B0AA3"></path><path d="M1.07849 16.9121C-0.760849 16.9121 -2.49015 17.6301 -3.79095 18.934C-5.09175 20.2378 -5.8081 21.9712 -5.8081 23.8148C-5.8081 25.6584 -5.09175 27.3918 -3.79095 28.6956L1.07849 23.8148L1.07849 16.9121Z" fill="#EFE914"></path><path d="M1.07849 23.8145L-2.57104 27.4725C-1.58578 28.4601 -0.281338 28.9867 1.07849 28.9867L1.07849 23.8145Z" fill="#EFE914"></path><path d="M1.07849 18.6416C-0.281338 18.6416 -1.58578 19.1682 -2.57104 20.1558C-3.5563 21.1434 -4.08172 22.4509 -4.08172 23.8139C-4.08172 25.1769 -3.5563 26.4844 -2.57104 27.4719L1.07849 23.8146L1.07849 18.6423L1.07849 18.6416Z" fill="#0B0AA3"></path><path d="M1.07849 23.8145L-1.35113 26.2498C-0.681417 26.921 0.198902 27.257 1.07849 27.257L1.07849 23.8145Z" fill="#0B0AA3"></path><path d="M1.07849 20.3721C0.198902 20.3721 -0.681416 20.7081 -1.35113 21.3794C-2.69055 22.7219 -2.69055 24.9074 -1.35113 26.25L1.07849 23.8147L1.07849 20.3721Z" fill="#EFE914"></path><path d="M1.07848 14.0528L-3.79108 9.17188L-13.5302 18.9338L-8.66064 23.8147L1.07848 14.0528Z" fill="#EFE914"></path><path d="M1.07811 33.5763L-3.79144 28.6953L-13.5306 38.4572L-8.661 43.3381L1.07811 33.5763Z" fill="#EFE914"></path></g><path d="M38.1347 10.8108C41.1251 10.8108 43.5492 8.39073 43.5492 5.4054C43.5492 2.42008 41.1251 0 38.1347 0C35.1444 0 32.7202 2.42008 32.7202 5.4054C32.7202 8.39073 35.1444 10.8108 38.1347 10.8108Z" fill="#EFE914"></path></g><defs><clipPath id="clip0_2349_27111"><rect width="43.5556" height="40" fill="white" transform="translate(-0.00634766)"></rect></clipPath></defs></svg>